<!-- Icon-pathfill-$color -->

<svg width="27" height="26" viewBox="0 0 27 26" xmlns="http://www.w3.org/2000/svg">
  <path d="M25.8929 11.85L12.4 0.139286C12.2964 0.0499998 12.1643 0 12.025 0H8.86429C8.6 0 8.47857 0.328571 8.67857 0.5L21.1857 11.3571H0.285714C0.128571 11.3571 0 11.4857 0 11.6429V13.7857C0 13.9429 0.128571 14.0714 0.285714 14.0714H21.1821L8.675 24.9286C8.475 25.1036 8.59643 25.4286 8.86071 25.4286H12.1286C12.1964 25.4286 12.2643 25.4036 12.3143 25.3571L25.8929 13.5786C26.0165 13.4711 26.1156 13.3383 26.1836 13.1892C26.2515 13.0401 26.2866 12.8781 26.2866 12.7143C26.2866 12.5504 26.2515 12.3885 26.1836 12.2394C26.1156 12.0903 26.0165 11.9575 25.8929 11.85Z" />
</svg>
