<svg
   class="icon-pathfill-lilac"
   xmlns="http://www.w3.org/2000/svg"
   viewbox="0 0 20.000001 20">
   <path d="m 10.186441,12 c -0.5400003,0 -0.9700003,-0.46 -0.9600003,-1 0,-0.54 0.46,-0.97 1.0000003,-0.96 0.54,0 0.97,0.46 0.96,1 0,0.25 -0.11,0.5 -0.29,0.68 -0.19,0.19 -0.45,0.29 -0.71,0.29 z m -4.0000003,0 c -0.54,0 -0.97,-0.46 -0.96,-1 0,-0.54 0.46,-0.97 1,-0.96 0.54,0.01 0.97,0.46 0.96,1 0,0.25 -0.11,0.5 -0.29,0.68 -0.19,0.19 -0.45,0.29 -0.71,0.29 z m 8.0000003,0 c -0.54,0 -0.97,-0.46 -0.96,-1 0,-0.54 0.46,-0.97 1,-0.96 0.54,0.01 0.97,0.46 0.96,1 0,0.25 -0.11,0.5 -0.29,0.68 -0.19,0.19 -0.45,0.29 -0.71,0.29 z m -4,4 c -0.5400003,0 -0.9700003,-0.46 -0.9600003,-1 0,-0.54 0.46,-0.97 1.0000003,-0.96 0.54,0.01 0.97,0.46 0.96,1 0,0.25 -0.11,0.5 -0.29,0.68 -0.19,0.19 -0.45,0.29 -0.71,0.29 z m -4.0000003,0 c -0.54,0 -0.97,-0.46 -0.96,-1 0,-0.54 0.46,-0.97 1,-0.96 0.54,0 0.97,0.46 0.96,1 0,0.25 -0.11,0.5 -0.29,0.68 -0.19,0.19 -0.45,0.29 -0.71,0.29 z m 8.0000003,0 c -0.54,0 -0.97,-0.46 -0.96,-1 0,-0.54 0.46,-0.97 1,-0.96 0.54,0 0.97,0.46 0.96,1 0,0.25 -0.11,0.5 -0.29,0.68 -0.19,0.19 -0.45,0.29 -0.71,0.29 z M 2.6864407,20 c -0.82,-0.02 -1.48,-0.68 -1.5,-1.5 V 3 c 0.02,-0.82 0.68,-1.48 1.5,-1.5 h 1.62 V 0 h 1.62 V 1.5 H 14.426441 V 0 h 1.62 v 1.5 h 1.62 c 0.82,0.02 1.48,0.68 1.5,1.5 v 15.5 c -0.02,0.82 -0.68,1.48 -1.5,1.5 z m 0,-1.5 H 17.686441 V 7.75 H 2.6864407 Z" />
</svg>
