<?xml version="1.0" encoding="UTF-8" standalone="no"?>
<svg
   xmlns:dc="http://purl.org/dc/elements/1.1/"
   xmlns:cc="http://creativecommons.org/ns#"
   xmlns:rdf="http://www.w3.org/1999/02/22-rdf-syntax-ns#"
   xmlns:svg="http://www.w3.org/2000/svg"
   xmlns="http://www.w3.org/2000/svg"
   xmlns:sodipodi="http://sodipodi.sourceforge.net/DTD/sodipodi-0.dtd"
   xmlns:inkscape="http://www.inkscape.org/namespaces/inkscape"
   id="Capa_1"
   data-name="Capa 1"
   viewBox="0 0 20.000001 20"
   version="1.1"
   sodipodi:docname="calendari2.svg"
   width="20"
   height="20"
   inkscape:version="0.92.4 (5da689c313, 2019-01-14)">
  <metadata
     id="metadata8">
    <rdf:RDF>
      <cc:Work
         rdf:about="">
        <dc:format>image/svg+xml</dc:format>
        <dc:type
           rdf:resource="http://purl.org/dc/dcmitype/StillImage" />
        <dc:title></dc:title>
      </cc:Work>
    </rdf:RDF>
  </metadata>
  <defs
     id="defs6" />
  <sodipodi:namedview
     pagecolor="#ffffff"
     bordercolor="#666666"
     borderopacity="1"
     objecttolerance="10"
     gridtolerance="10"
     guidetolerance="10"
     inkscape:pageopacity="0"
     inkscape:pageshadow="2"
     inkscape:window-width="1159"
     inkscape:window-height="594"
     id="namedview4"
     showgrid="false"
     fit-margin-top="1"
     fit-margin-left="0"
     fit-margin-right="0"
     fit-margin-bottom="0.4"
     inkscape:zoom="6.7428571"
     inkscape:cx="9"
     inkscape:cy="10"
     inkscape:window-x="0"
     inkscape:window-y="0"
     inkscape:window-maximized="0"
     inkscape:current-layer="Capa_1" />
  <path
     id="calendar_month_FILL1_wght400_GRAD0_opsz48"
     data-name="calendar month FILL1 wght400 GRAD0 opsz48"
     d="m 10.186441,12 c -0.5400003,0 -0.9700003,-0.46 -0.9600003,-1 0,-0.54 0.46,-0.97 1.0000003,-0.96 0.54,0 0.97,0.46 0.96,1 0,0.25 -0.11,0.5 -0.29,0.68 -0.19,0.19 -0.45,0.29 -0.71,0.29 z m -4.0000003,0 c -0.54,0 -0.97,-0.46 -0.96,-1 0,-0.54 0.46,-0.97 1,-0.96 0.54,0.01 0.97,0.46 0.96,1 0,0.25 -0.11,0.5 -0.29,0.68 -0.19,0.19 -0.45,0.29 -0.71,0.29 z m 8.0000003,0 c -0.54,0 -0.97,-0.46 -0.96,-1 0,-0.54 0.46,-0.97 1,-0.96 0.54,0.01 0.97,0.46 0.96,1 0,0.25 -0.11,0.5 -0.29,0.68 -0.19,0.19 -0.45,0.29 -0.71,0.29 z m -4,4 c -0.5400003,0 -0.9700003,-0.46 -0.9600003,-1 0,-0.54 0.46,-0.97 1.0000003,-0.96 0.54,0.01 0.97,0.46 0.96,1 0,0.25 -0.11,0.5 -0.29,0.68 -0.19,0.19 -0.45,0.29 -0.71,0.29 z m -4.0000003,0 c -0.54,0 -0.97,-0.46 -0.96,-1 0,-0.54 0.46,-0.97 1,-0.96 0.54,0 0.97,0.46 0.96,1 0,0.25 -0.11,0.5 -0.29,0.68 -0.19,0.19 -0.45,0.29 -0.71,0.29 z m 8.0000003,0 c -0.54,0 -0.97,-0.46 -0.96,-1 0,-0.54 0.46,-0.97 1,-0.96 0.54,0 0.97,0.46 0.96,1 0,0.25 -0.11,0.5 -0.29,0.68 -0.19,0.19 -0.45,0.29 -0.71,0.29 z M 2.6864407,20 c -0.82,-0.02 -1.48,-0.68 -1.5,-1.5 V 3 c 0.02,-0.82 0.68,-1.48 1.5,-1.5 h 1.62 V 0 h 1.62 V 1.5 H 14.426441 V 0 h 1.62 v 1.5 h 1.62 c 0.82,0.02 1.48,0.68 1.5,1.5 v 15.5 c -0.02,0.82 -0.68,1.48 -1.5,1.5 z m 0,-1.5 H 17.686441 V 7.75 H 2.6864407 Z"
     inkscape:connector-curvature="0"
     style="fill:#3c96a3;fill-opacity:0.65165168" />
</svg>
