<svg
   class="icon-pathfill-lilac"
   xmlns="http://www.w3.org/2000/svg"
   viewbox="0 0 20.24 20.24">
  <g transform="translate(-7.38,-7.39)">
    <path d="m 21.22,22.39 1.14,-1.14 -4.02,-4.05 v -5.09 h -1.52 v 5.7 z m -3.72,5.24 c -1.35,0 -2.68,-0.26 -3.92,-0.8 -2.43,-1.03 -4.37,-2.97 -5.4,-5.4 -0.53,-1.24 -0.8,-2.57 -0.8,-3.92 0,-1.35 0.26,-2.68 0.8,-3.92 1.03,-2.43 2.97,-4.37 5.4,-5.4 1.24,-0.53 2.57,-0.8 3.92,-0.8 1.35,0 2.68,0.26 3.92,0.8 2.43,1.03 4.37,2.97 5.4,5.4 0.53,1.24 0.8,2.57 0.8,3.92 0,1.35 -0.26,2.68 -0.8,3.92 -1.03,2.43 -2.97,4.37 -5.4,5.4 -1.24,0.53 -2.57,0.8 -3.92,0.8" />
  </g>
</svg>
