<svg
   class="icon-pathfill-white"
   xmlns="http://www.w3.org/2000/svg"
   viewbox="0 0 22.834999 23.99">
   <path d="M 1.7,22.85 C 1.25,22.85 0.82,22.66 0.51,22.34 0.18,22.03 0,21.59 0,21.14 V 3.42 C 0,2.97 0.18,2.53 0.51,2.22 0.82,1.89 1.25,1.7 1.7,1.71 H 3.54 V 0 h 1.84 v 1.71 h 9.63 V 0 h 1.84 v 1.71 h 1.84 c 0.45,0 0.88,0.19 1.19,0.51 0.33,0.31 0.51,0.75 0.51,1.2 v 8.6 h -1.7 V 8.85 H 1.7 v 12.29 h 9.04 v 1.71 z m 20.09,-6.26 -2.01,-2.03 0.82,-0.83 c 0.34,-0.3 0.85,-0.3 1.19,0 l 0.82,0.83 c 0.3,0.34 0.3,0.86 0,1.2 z m -9.35,7.4 v -2.03 l 6.12,-6.17 2.01,2.03 -6.12,6.17 z" />
</svg>
