<?xml version="1.0" encoding="UTF-8" standalone="no"?>
<svg
   xmlns:dc="http://purl.org/dc/elements/1.1/"
   xmlns:cc="http://creativecommons.org/ns#"
   xmlns:rdf="http://www.w3.org/1999/02/22-rdf-syntax-ns#"
   xmlns:svg="http://www.w3.org/2000/svg"
   xmlns="http://www.w3.org/2000/svg"
   xmlns:sodipodi="http://sodipodi.sourceforge.net/DTD/sodipodi-0.dtd"
   xmlns:inkscape="http://www.inkscape.org/namespaces/inkscape"
   id="Capa_1"
   data-name="Capa 1"
   viewBox="0 0 24.01 17.870682"
   version="1.1"
   sodipodi:docname="projectes.svg"
   width="24.01"
   height="17.870682"
   inkscape:version="0.92.4 (5da689c313, 2019-01-14)">
  <metadata
     id="metadata9">
    <rdf:RDF>
      <cc:Work
         rdf:about="">
        <dc:format>image/svg+xml</dc:format>
        <dc:type
           rdf:resource="http://purl.org/dc/dcmitype/StillImage" />
        <dc:title></dc:title>
      </cc:Work>
    </rdf:RDF>
  </metadata>
  <defs
     id="defs7" />
  <sodipodi:namedview
     pagecolor="#ffffff"
     bordercolor="#666666"
     borderopacity="1"
     objecttolerance="10"
     gridtolerance="10"
     guidetolerance="10"
     inkscape:pageopacity="0"
     inkscape:pageshadow="2"
     inkscape:window-width="1366"
     inkscape:window-height="705"
     id="namedview5"
     showgrid="false"
     fit-margin-top="0"
     fit-margin-left="0"
     fit-margin-right="0"
     fit-margin-bottom="0"
     inkscape:zoom="6.7428571"
     inkscape:cx="11.71339"
     inkscape:cy="6.1228834"
     inkscape:window-x="-8"
     inkscape:window-y="-8"
     inkscape:window-maximized="1"
     inkscape:current-layer="Capa_1" />
  <g
     id="Grupo_697"
     data-name="Grupo 697"
     transform="translate(-5.49,-8.57)">
    <path
       id="Trazado_374"
       data-name="Trazado 374"
       d="M 7.17,26.43 C 6.73,26.43 6.31,26.24 6.01,25.92 5.68,25.62 5.5,25.2 5.49,24.76 V 10.24 C 5.49,9.8 5.68,9.38 6,9.08 6.3,8.76 6.72,8.57 7.16,8.57 H 15 l 1.67,1.67 h 9.46 c 0.44,0 0.86,0.19 1.16,0.51 0.32,0.3 0.51,0.72 0.51,1.16 H 7.17 V 24.75 L 10.02,13.59 H 29.5 l -2.99,11.56 c -0.08,0.39 -0.29,0.74 -0.61,0.98 -0.34,0.22 -0.74,0.32 -1.14,0.31 H 7.17 Z"
       inkscape:connector-curvature="0" />
  </g>
</svg>
