<?xml version="1.0" encoding="UTF-8" standalone="no"?>
<!-- Created with Inkscape (http://www.inkscape.org/) -->

<svg
   xmlns:dc="http://purl.org/dc/elements/1.1/"
   xmlns:cc="http://creativecommons.org/ns#"
   xmlns:rdf="http://www.w3.org/1999/02/22-rdf-syntax-ns#"
   xmlns:svg="http://www.w3.org/2000/svg"
   xmlns="http://www.w3.org/2000/svg"
   xmlns:sodipodi="http://sodipodi.sourceforge.net/DTD/sodipodi-0.dtd"
   xmlns:inkscape="http://www.inkscape.org/namespaces/inkscape"
   width="40.385994mm"
   height="8.2113523mm"
   viewBox="0 0 40.385994 8.2113524"
   version="1.1"
   id="svg8"
   inkscape:version="0.92.4 (5da689c313, 2019-01-14)"
   sodipodi:docname="logo_gene.svg">
  <defs
     id="defs2" />
  <sodipodi:namedview
     id="base"
     pagecolor="#ffffff"
     bordercolor="#666666"
     borderopacity="1.0"
     inkscape:pageopacity="0.0"
     inkscape:pageshadow="2"
     inkscape:zoom="1.979899"
     inkscape:cx="14.695862"
     inkscape:cy="-35.778868"
     inkscape:document-units="mm"
     inkscape:current-layer="layer1"
     showgrid="false"
     fit-margin-top="0"
     fit-margin-left="0"
     fit-margin-right="0"
     fit-margin-bottom="0"
     inkscape:window-width="1366"
     inkscape:window-height="705"
     inkscape:window-x="-8"
     inkscape:window-y="-8"
     inkscape:window-maximized="1" />
  <metadata
     id="metadata5">
    <rdf:RDF>
      <cc:Work
         rdf:about="">
        <dc:format>image/svg+xml</dc:format>
        <dc:type
           rdf:resource="http://purl.org/dc/dcmitype/StillImage" />
        <dc:title></dc:title>
      </cc:Work>
    </rdf:RDF>
  </metadata>
  <g
     inkscape:label="Layer 1"
     inkscape:groupmode="layer"
     id="layer1"
     transform="translate(-60.143567,-97.074528)">
    <path
       style="fill:#ffffff;fill-opacity:1;stroke-width:0.08466667"
       d="m 60.143567,105.24878 c 0,-0.0202 0.03892,-0.13918 0.08649,-0.26429 0.06358,-0.16723 0.05797,-0.26206 -0.02117,-0.35804 -0.09514,-0.11539 -0.08467,-0.11832 0.0901,-0.0252 0.211134,0.11252 0.321233,0.0771 0.22821,-0.0734 -0.03116,-0.0504 -0.101655,-0.0659 -0.156645,-0.0344 -0.05499,0.0315 -0.07465,0.029 -0.04369,-0.006 0.03096,-0.0345 0.0024,-0.19183 -0.0635,-0.34952 -0.131429,-0.31455 -0.164629,-1.00718 -0.04473,-0.93308 0.04129,0.0255 0.101416,0.18684 0.133618,0.35849 0.07875,0.41978 0.299962,0.95978 0.393173,0.95978 0.04151,0 0.07848,-0.10478 0.08216,-0.23284 0.0037,-0.12806 0.0259,-0.18521 0.04939,-0.127 0.02349,0.0582 0.09668,0.10584 0.162649,0.10584 0.06971,0 0.117452,0.0798 0.113994,0.1905 -0.0055,0.17503 -0.01116,0.1772 -0.07006,0.0268 -0.04407,-0.11254 -0.08347,-0.13239 -0.126045,-0.0635 -0.03406,0.0551 -0.04059,0.13476 -0.01449,0.17699 0.0261,0.0422 -0.02881,0.0568 -0.122003,0.0325 -0.204398,-0.0535 -0.213861,0.0451 -0.03532,0.36792 l 0.134128,0.24251 -0.03866,-0.23774 c -0.03157,-0.19413 -0.01346,-0.22712 0.09871,-0.1798 0.07555,0.0319 0.346915,0.12729 0.603032,0.21203 l 0.465667,0.15407 -0.3654,0.005 c -0.200969,0.003 -0.435286,-0.0328 -0.520703,-0.0786 -0.117232,-0.0627 -0.168002,-0.05 -0.207102,0.0519 -0.04118,0.10731 -0.07687,0.11418 -0.174088,0.0335 -0.06726,-0.0558 -0.171584,-0.0719 -0.231832,-0.0356 -0.07946,0.0478 -0.07716,0.026 0.0084,-0.0794 0.168319,-0.20744 0.04315,-0.28293 -0.161713,-0.0975 -0.131232,0.11877 -0.146364,0.17171 -0.06402,0.22397 0.07861,0.0499 0.06768,0.0688 -0.04033,0.0697 -0.08149,7.1e-4 -0.148166,-0.0153 -0.148166,-0.0355 z m 5.334,-0.0306 c 0,-0.0371 0.180975,-0.12632 0.402166,-0.19833 0.221192,-0.072 0.466062,-0.15898 0.544156,-0.19328 0.112503,-0.0494 0.132712,-0.0269 0.09732,0.10847 -0.03253,0.1244 -0.158562,0.19526 -0.463657,0.26069 -0.501857,0.10763 -0.579981,0.11065 -0.579981,0.0224 z m 1.139297,-0.17943 c 0.07346,-0.14206 0.249802,-0.3184 0.391864,-0.39187 0.246456,-0.12744 0.254422,-0.12633 0.173807,0.0243 -0.05195,0.0971 -0.05465,0.20502 -0.007,0.2803 0.0426,0.0673 0.07805,0.17006 0.07876,0.22827 0.0015,0.12588 -0.304561,0.14275 -0.379845,0.0209 -0.03473,-0.0562 -0.109701,-0.0543 -0.2218,0.006 -0.164308,0.0879 -0.165369,0.083 -0.03576,-0.16767 z m 0.40587,-0.0236 c -0.102188,-0.10218 -0.211334,-0.16026 -0.242547,-0.12904 -0.08237,0.0824 0.133887,0.31484 0.292895,0.31484 0.108857,0 0.09897,-0.0365 -0.05035,-0.1858 z m 1.502833,-0.4492 c 0,-0.7112 0.0025,-0.71967 0.211667,-0.71967 0.209176,0 0.211666,0.008 0.211666,0.71967 0,0.7112 -0.0025,0.71967 -0.211666,0.71967 -0.209177,0 -0.211667,-0.008 -0.211667,-0.71967 z m 2.032,-0.127 v -0.84667 h -0.296333 c -0.239889,0 -0.296334,-0.0323 -0.296334,-0.16933 0,-0.15745 0.05644,-0.16933 0.804334,-0.16933 0.747888,0 0.804333,0.0119 0.804333,0.16933 0,0.13708 -0.05644,0.16933 -0.296333,0.16933 H 70.9809 v 0.84667 0.84667 h -0.211666 -0.211667 z m 0.931333,0.127 c 0,-0.66322 0.01328,-0.71967 0.169334,-0.71967 0.09681,0 0.169333,0.0564 0.169333,0.1318 0,0.11929 0.01786,0.11929 0.188172,0 0.256021,-0.17932 0.404495,-0.16554 0.404495,0.0375 0,0.10661 -0.05645,0.16933 -0.1524,0.16933 -0.256,0 -0.3556,0.1826 -0.3556,0.65193 0,0.42221 -0.01251,0.44874 -0.211667,0.44874 -0.209177,0 -0.211667,-0.008 -0.211667,-0.71967 z m 1.300826,0.62064 c -0.199249,-0.0965 -0.369492,-0.40678 -0.369492,-0.67347 0,-0.22225 0.444583,-0.66684 0.666836,-0.66684 0.27953,0 0.577815,0.17336 0.678494,0.39432 0.182166,0.39981 0.134082,0.45235 -0.413997,0.45235 -0.511878,0 -0.641581,0.0919 -0.349989,0.24794 0.108157,0.0579 0.240702,0.0534 0.420101,-0.0144 0.338009,-0.12759 0.453119,-0.0117 0.195675,0.19704 -0.217345,0.17621 -0.542711,0.20098 -0.827628,0.063 z m 0.646508,-0.82194 c 0,-0.17219 -0.240786,-0.2774 -0.417922,-0.1826 -0.264447,0.14153 -0.209843,0.2569 0.121588,0.2569 0.162984,0 0.296334,-0.0334 0.296334,-0.0743 z m 0.677333,-0.095 v -1.016 h 0.211667 c 0.193803,0 0.211666,0.0315 0.211666,0.37364 v 0.37365 l 0.245455,-0.0927 c 0.330891,-0.1249 0.658058,0.0846 0.729872,0.46743 0.1124,0.59914 -0.308328,1.03902 -0.811961,0.84892 -0.137718,-0.052 -0.248032,-0.0592 -0.248032,-0.0163 0,0.0425 -0.0762,0.0773 -0.169334,0.0773 -0.159926,0 -0.169333,-0.0565 -0.169333,-1.016 z m 1.016,0.29633 c 0,-0.35053 -0.228428,-0.52261 -0.464554,-0.34995 -0.192478,0.14074 -0.192478,0.55916 0,0.6999 0.236126,0.17266 0.464554,5.8e-4 0.464554,-0.34995 z m 0.732789,0.56483 c -0.286335,-0.31639 -0.136966,-0.55769 0.416393,-0.67266 0.392076,-0.0815 0.526739,-0.35784 0.174356,-0.35784 -0.117083,0 -0.236425,0.0381 -0.265205,0.0847 -0.06639,0.10743 -0.381,0.11139 -0.381,0.005 0,-0.14319 0.370272,-0.34347 0.635,-0.34347 0.142261,0 0.343334,0.0593 0.446828,0.1318 0.163729,0.11468 0.188172,0.20817 0.188172,0.71967 0,0.53142 -0.01626,0.58787 -0.169333,0.58787 -0.09313,0 -0.169333,-0.0372 -0.169333,-0.0826 0,-0.0537 -0.07607,-0.0537 -0.217179,0 -0.319515,0.12147 -0.501425,0.10152 -0.658699,-0.0723 z m 0.775933,-0.332 c 0.01766,-0.12431 -0.01671,-0.1905 -0.09891,-0.1905 -0.241476,0 -0.393814,0.10394 -0.393814,0.26869 0,0.25318 0.455936,0.18083 0.492722,-0.0782 z m 0.777278,-0.52916 v -1.016 h 0.211667 0.211666 v 1.016 1.016 h -0.211666 -0.211667 z m 0.677333,0 v -1.016 h 0.211667 0.211667 v 1.016 1.016 H 78.304567 78.0929 Z m -15.337859,0.81817 c -1.201431,-0.44793 -2.074404,-1.49232 -2.399336,-2.87047 -0.452178,-1.91785 0.457599,-4.041775 2.05115,-4.788515 0.423482,-0.19845 0.595431,-0.22886 1.293996,-0.22886 0.73892,0 0.852279,0.0229 1.369204,0.27721 2.761434,1.35825 2.793634,5.921505 0.05214,7.388285 -0.473744,0.25347 -0.619129,0.28844 -1.295623,0.31163 -0.496031,0.017 -0.870038,-0.0142 -1.071526,-0.0893 z m 1.283192,-0.22551 c 0,-0.0466 -0.1524,-0.0847 -0.338666,-0.0847 -0.186267,0 -0.338667,0.0381 -0.338667,0.0847 0,0.0466 0.1524,0.0847 0.338667,0.0847 0.186266,0 0.338666,-0.0381 0.338666,-0.0847 z m -1.355365,-0.1905 c -3.81e-4,-0.0582 -0.152784,-0.18839 -0.338666,-0.2893 -0.257525,-0.13979 -0.337969,-0.15539 -0.337969,-0.0655 0,0.0649 0.142875,0.19337 0.3175,0.28556 0.384601,0.20304 0.359987,0.19829 0.359135,0.0693 z m 2.424872,-0.0704 c 0.156838,-0.0969 0.28516,-0.23084 0.28516,-0.29757 0,-0.0915 -0.07676,-0.0727 -0.312448,0.0764 -0.288856,0.18281 -0.460799,0.39739 -0.318434,0.39739 0.03331,0 0.188884,-0.0793 0.345722,-0.17624 z m -1.069507,-3.4221 V 97.665645 H 63.699567 63.3609 v 3.513665 3.51367 h 0.338667 0.338666 z m -1.354666,0 c 0,-1.792815 -0.02408,-3.259665 -0.05351,-3.259665 -0.02943,0 -0.181828,0.0793 -0.338666,0.17623 l -0.285161,0.17624 v 2.905785 2.90578 l 0.275167,0.17623 c 0.151342,0.0969 0.303742,0.17686 0.338667,0.17764 0.03492,7.9e-4 0.0635,-1.46542 0.0635,-3.25824 z m 2.434166,3.09126 0.275167,-0.16777 v -2.91534 -2.915345 l -0.28516,-0.17624 c -0.156838,-0.0969 -0.309238,-0.17623 -0.338667,-0.17623 -0.02943,0 -0.05351,1.46685 -0.05351,3.259665 0,1.79282 0.02857,3.25953 0.0635,3.25935 0.03493,-1.7e-4 0.187325,-0.0758 0.338666,-0.16809 z M 61.3289,103.51546 c 0,-0.0423 -0.09377,-0.26134 -0.208371,-0.48683 -0.114604,-0.22549 -0.229655,-0.52428 -0.255669,-0.66398 -0.02601,-0.1397 0.03704,-0.0349 0.140121,0.23283 0.103079,0.26776 0.21813,0.48683 0.255668,0.48683 0.03754,0 0.06825,-0.86487 0.06825,-1.92193 0,-2.021955 -0.02662,-2.126915 -0.337535,-1.330675 -0.0894,0.228955 -0.164297,0.359125 -0.166438,0.289275 -0.0021,-0.0698 0.110377,-0.368555 0.25004,-0.663775 0.266172,-0.56264 0.300165,-0.6909 0.183111,-0.6909 -0.113519,0 -0.505009,0.84435 -0.646164,1.393625 -0.244777,0.9525 -0.138445,1.95846 0.306875,2.90322 0.220216,0.46719 0.410111,0.67663 0.410111,0.45231 z m -0.576161,-1.65881 c -0.0017,-0.1397 0.01584,-0.2071 0.03903,-0.14978 0.02319,0.0573 0.0246,0.17162 0.0031,0.254 -0.02147,0.0824 -0.04044,0.0355 -0.04217,-0.10422 z m -0.07982,-0.67734 c -9.4e-4,-0.18626 0.01563,-0.27243 0.03682,-0.19148 0.02119,0.0809 0.02196,0.23334 0.0017,0.33866 -0.02025,0.10532 -0.03759,0.0391 -0.03853,-0.14718 z m 0.07982,-0.67733 c -0.0017,-0.1397 0.01584,-0.2071 0.03903,-0.14978 0.02319,0.0573 0.0246,0.17162 0.0031,0.254 -0.02147,0.0824 -0.04044,0.0355 -0.04217,-0.10422 z m 5.975317,1.98967 c 0.197123,-0.62654 0.196376,-1.9897 -0.0014,-2.624675 -0.07979,-0.25612 -0.238813,-0.61807 -0.353387,-0.80433 l -0.208356,-0.33871 v 2.455335 2.45534 l 0.208317,-0.33867 c 0.114574,-0.18627 0.274246,-0.54822 0.354827,-0.80433 z m -0.439957,0.42333 c 0.03114,-0.11642 0.09193,-0.26882 0.135085,-0.33867 0.05454,-0.0883 0.0612,-0.0624 0.02185,0.0847 -0.03114,0.11642 -0.09193,0.26882 -0.135086,0.33867 -0.05453,0.0883 -0.0612,0.0624 -0.02185,-0.0847 z m 0.26103,-0.80433 c 0.02836,-0.18627 0.06556,-0.35455 0.08267,-0.37395 0.06413,-0.0727 0.01612,0.38074 -0.05752,0.54328 -0.05347,0.11802 -0.06109,0.0667 -0.02515,-0.16933 z m 0.139143,-0.889 c 0,-0.25612 0.01587,-0.3609 0.03527,-0.23284 0.0194,0.12806 0.0194,0.33761 0,0.46567 -0.0194,0.12806 -0.03527,0.0233 -0.03527,-0.23283 z m -0.09967,-0.71967 c -0.007,-0.0931 -0.03229,-0.26458 -0.05625,-0.381 l -0.04357,-0.211675 0.09069,0.207705 c 0.04988,0.11424 0.07519,0.28569 0.05625,0.381 -0.03355,0.16883 -0.03477,0.16894 -0.04713,0.004 z m -0.254966,-0.898415 c -0.05216,-0.14963 -0.08002,-0.28687 -0.06191,-0.30498 0.01811,-0.0181 0.0756,0.0895 0.127764,0.23913 0.05216,0.14963 0.08002,0.28687 0.06191,0.30498 -0.01811,0.0181 -0.0756,-0.0895 -0.127764,-0.23913 z m -3.650726,-1.91848 c 4.6e-4,-0.076 -0.09873,-0.0568 -0.338015,0.0652 -0.186267,0.095 -0.338667,0.23029 -0.338667,0.30058 0,0.10308 0.06541,0.0905 0.338015,-0.0652 0.185908,-0.10616 0.338308,-0.24142 0.338667,-0.30058 z m 2.709985,0.36373 c 0,-0.14037 -0.465678,-0.41139 -0.619037,-0.36027 -0.05476,0.0182 0.0526,0.13262 0.238573,0.25416 0.407703,0.26644 0.380464,0.25884 0.380464,0.10611 z m -1.354667,-0.55251 c 0,-0.0466 -0.1524,-0.0847 -0.338666,-0.0847 -0.186267,0 -0.338667,0.0381 -0.338667,0.0847 0,0.0466 0.1524,0.0847 0.338667,0.0847 0.186266,0 0.338666,-0.0381 0.338666,-0.0847 z m -2.624666,7.196675 c -0.07631,-0.0493 -0.08675,-0.0826 -0.02616,-0.0834 0.05546,-7.1e-4 0.124384,0.0368 0.153164,0.0834 0.06497,0.10512 0.03565,0.10512 -0.127,0 z m 5.062367,-0.0591 c 0.06999,-0.0269 0.08138,-0.0771 0.03163,-0.1396 -0.04275,-0.0537 -0.04702,-0.1738 -0.0095,-0.26694 0.05961,-0.14789 0.06901,-0.13985 0.0742,0.0635 0.0033,0.12806 0.04499,0.23284 0.09271,0.23284 0.105788,0 0.217896,-0.27969 0.42421,-1.05834 l 0.157037,-0.59266 0.0047,0.51653 c 0.0078,0.86284 -0.186079,1.22859 -0.672672,1.26906 -0.116416,0.01 -0.162451,-0.001 -0.102299,-0.0244 z m -0.222999,-0.19487 c 0,-0.11642 0.01922,-0.16404 0.0427,-0.10583 0.02349,0.0582 0.02349,0.15345 0,0.21166 -0.02349,0.0582 -0.0427,0.0106 -0.0427,-0.10583 z m -5.553592,-0.56785 c -0.04595,-0.12067 -0.03622,-0.13039 0.0474,-0.0474 0.05786,0.0574 0.08388,0.12575 0.05781,0.15181 -0.02607,0.0261 -0.07341,-0.0209 -0.105206,-0.10442 z m -0.22099,-0.37074 c -0.05198,-0.0971 -0.07856,-0.19253 -0.05907,-0.21202 0.01949,-0.0195 0.07891,0.06 0.132045,0.17659 0.116676,0.25607 0.05987,0.28366 -0.07298,0.0354 z m 8.047214,-0.0715 c 0,-0.13179 0.054,-0.17522 0.217874,-0.17522 0.277905,0 0.253171,0.28324 -0.02824,0.32338 -0.14403,0.0206 -0.189635,-0.0151 -0.189634,-0.14816 z m 3.640667,-1.36056 c 0,-0.94483 0.01137,-1.016 0.162278,-1.016 0.08925,0 0.179739,0.0476 0.201083,0.10584 0.03104,0.0847 0.06124,0.0847 0.150989,0 0.162859,-0.15364 0.453278,-0.12982 0.68277,0.056 0.286575,0.23205 0.286575,0.88357 0,1.11562 -0.227036,0.18385 -0.522145,0.2103 -0.672187,0.0603 -0.07902,-0.079 -0.1016,-0.0132 -0.1016,0.29633 0,0.36802 -0.01591,0.39793 -0.211667,0.39793 h -0.211666 z m 1.016,-0.29633 c 0,-0.21184 -0.04999,-0.31713 -0.184828,-0.38929 -0.157586,-0.0843 -0.207789,-0.0706 -0.340626,0.0935 -0.09805,0.12108 -0.136213,0.25864 -0.102958,0.3711 0.145104,0.4907 0.628412,0.43278 0.628412,-0.0753 z m 20.235333,0.29633 c 0,-0.94483 0.01137,-1.016 0.162279,-1.016 0.08925,0 0.179739,0.0476 0.201083,0.10584 0.03104,0.0847 0.06124,0.0847 0.150988,0 0.162859,-0.15364 0.453279,-0.12982 0.682771,0.056 0.286575,0.23205 0.286575,0.88357 0,1.11562 -0.227036,0.18385 -0.522145,0.2103 -0.672187,0.0603 -0.07902,-0.079 -0.1016,-0.0132 -0.1016,0.29633 0,0.36802 -0.01591,0.39793 -0.211667,0.39793 h -0.211667 z m 1.016,-0.29633 c 0,-0.21184 -0.04999,-0.31713 -0.184827,-0.38929 -0.157587,-0.0843 -0.207789,-0.0706 -0.340627,0.0935 -0.09805,0.12108 -0.136212,0.25864 -0.102957,0.3711 0.145104,0.4907 0.628411,0.43278 0.628411,-0.0753 z m -25.908,-0.29633 v -1.03451 l 0.634706,0.032 c 0.557362,0.0281 0.663115,0.0605 0.867833,0.26518 0.20219,0.20219 0.233128,0.30003 0.233128,0.73728 0,0.43724 -0.03094,0.53508 -0.233128,0.73727 -0.204718,0.20472 -0.310471,0.23704 -0.867833,0.26518 l -0.634706,0.032 z m 1.066825,0.61253 c 0.149359,-0.0997 0.287842,-0.41396 0.287842,-0.65315 0,-0.30438 -0.351528,-0.63672 -0.673486,-0.63672 h -0.257848 v 0.67734 0.67733 l 0.275167,-0.001 c 0.151342,-7.1e-4 0.317088,-0.0293 0.368325,-0.0635 z m 1.25,0.30444 c -0.199248,-0.0965 -0.369492,-0.40678 -0.369492,-0.67347 0,-0.22225 0.444584,-0.66684 0.666837,-0.66684 0.279529,0 0.577815,0.17336 0.678494,0.39432 0.182165,0.39981 0.134081,0.45235 -0.413997,0.45235 -0.511878,0 -0.641582,0.0919 -0.34999,0.24794 0.108158,0.0579 0.240703,0.0534 0.420102,-0.0144 0.338009,-0.12759 0.453118,-0.0117 0.195675,0.19704 -0.217345,0.17621 -0.542711,0.20098 -0.827629,0.063 z m 0.646508,-0.82194 c 0,-0.17219 -0.240786,-0.2774 -0.417921,-0.1826 -0.264447,0.14153 -0.209843,0.2569 0.121588,0.2569 0.162983,0 0.296333,-0.0334 0.296333,-0.0743 z m 2.426123,0.76613 c -0.286335,-0.31639 -0.136966,-0.55769 0.416393,-0.67266 0.392075,-0.0815 0.526738,-0.35784 0.174356,-0.35784 -0.117083,0 -0.236425,0.0381 -0.265205,0.0847 -0.06639,0.10743 -0.381,0.11139 -0.381,0.005 0,-0.14319 0.370272,-0.34347 0.635,-0.34347 0.14226,0 0.343334,0.0593 0.446828,0.1318 0.163729,0.11468 0.188172,0.20817 0.188172,0.71967 0,0.53142 -0.01626,0.58787 -0.169333,0.58787 -0.09313,0 -0.169334,-0.0372 -0.169334,-0.0826 0,-0.0537 -0.07607,-0.0537 -0.217178,0 -0.319515,0.12147 -0.501426,0.10152 -0.658699,-0.0723 z m 0.775933,-0.332 c 0.01766,-0.12431 -0.01671,-0.1905 -0.09891,-0.1905 -0.241475,0 -0.393813,0.10394 -0.393813,0.26869 0,0.25318 0.455936,0.18083 0.492722,-0.0782 z m 0.777278,-0.23283 c 0,-0.66322 0.01328,-0.71967 0.169333,-0.71967 0.09682,0 0.169333,0.0565 0.169333,0.1318 0,0.11929 0.01786,0.11929 0.188173,0 0.103494,-0.0725 0.293994,-0.1318 0.423333,-0.1318 0.194394,0 0.235161,-0.0367 0.235161,-0.21166 0,-0.16934 0.04233,-0.21167 0.211667,-0.21167 0.169333,0 0.211666,0.0423 0.211666,0.21167 0,0.1317 0.04798,0.21166 0.127,0.21166 0.06985,0 0.127,0.0572 0.127,0.127 0,0.0699 -0.05715,0.127 -0.127,0.127 -0.181069,0 -0.181069,0.83124 0,0.90072 0.221882,0.0851 0.144742,0.28462 -0.110066,0.28462 -0.348647,0 -0.440267,-0.14588 -0.440267,-0.701 v -0.49779 l -0.275167,0.0588 c -0.418832,0.0896 -0.486833,0.18518 -0.486833,0.68465 0,0.42921 -0.01213,0.4553 -0.211667,0.4553 -0.209176,0 -0.211666,-0.008 -0.211666,-0.71967 z m 2.172122,0.56483 c -0.286335,-0.31639 -0.136966,-0.55769 0.416393,-0.67266 0.392076,-0.0815 0.526739,-0.35784 0.174356,-0.35784 -0.117083,0 -0.236425,0.0381 -0.265205,0.0847 -0.06639,0.10743 -0.381,0.11139 -0.381,0.005 0,-0.14319 0.370272,-0.34347 0.635,-0.34347 0.142261,0 0.343334,0.0593 0.446828,0.1318 0.163729,0.11468 0.188172,0.20817 0.188172,0.71967 0,0.53142 -0.01626,0.58787 -0.169333,0.58787 -0.09313,0 -0.169333,-0.0372 -0.169333,-0.0826 0,-0.0537 -0.07607,-0.0537 -0.217179,0 -0.319515,0.12147 -0.501425,0.10152 -0.658699,-0.0723 z m 0.775933,-0.332 c 0.01766,-0.12431 -0.01671,-0.1905 -0.09891,-0.1905 -0.241476,0 -0.393814,0.10394 -0.393814,0.26869 0,0.25318 0.455936,0.18083 0.492722,-0.0782 z m 0.692611,-0.23283 c 0,-0.65279 0.01508,-0.71967 0.162279,-0.71967 0.08925,0 0.179739,0.0476 0.201083,0.10584 0.03104,0.0847 0.06124,0.0847 0.150988,0 0.143175,-0.13507 0.437455,-0.13617 0.571497,-0.002 0.08184,0.0818 0.138738,0.0818 0.269785,0 0.223286,-0.13945 0.431013,-0.13057 0.657529,0.0281 0.16373,0.11468 0.188173,0.20817 0.188173,0.71967 0,0.57061 -0.0062,0.58787 -0.211667,0.58787 -0.203705,0 -0.211666,-0.0204 -0.211666,-0.54128 0,-0.42177 -0.03041,-0.55294 -0.137732,-0.59413 -0.249634,-0.0958 -0.370269,0.112 -0.370269,0.63777 0,0.47437 -0.0099,0.49764 -0.211666,0.49764 -0.20387,0 -0.211667,-0.0201 -0.211667,-0.54534 0,-0.56523 -0.08838,-0.72791 -0.300042,-0.55225 -0.08235,0.0683 -0.123291,0.26756 -0.123291,0.59995 0,0.47437 -0.0099,0.49764 -0.211667,0.49764 -0.209176,0 -0.211667,-0.008 -0.211667,-0.71967 z m 2.824826,0.62064 c -0.199249,-0.0965 -0.369492,-0.40678 -0.369492,-0.67347 0,-0.22225 0.444584,-0.66684 0.666836,-0.66684 0.27953,0 0.577816,0.17336 0.678494,0.39432 0.182166,0.39981 0.134082,0.45235 -0.413997,0.45235 -0.511878,0 -0.641581,0.0919 -0.349989,0.24794 0.108157,0.0579 0.240702,0.0534 0.420102,-0.0144 0.338008,-0.12759 0.453118,-0.0117 0.195675,0.19704 -0.217346,0.17621 -0.542711,0.20098 -0.827629,0.063 z m 0.646508,-0.82194 c 0,-0.17219 -0.240786,-0.2774 -0.417922,-0.1826 -0.264447,0.14153 -0.209843,0.2569 0.121589,0.2569 0.162983,0 0.296333,-0.0334 0.296333,-0.0743 z m 0.677333,0.2013 c 0,-0.65279 0.01508,-0.71967 0.162278,-0.71967 0.08925,0 0.176708,0.0433 0.194345,0.0962 0.0232,0.0696 0.08014,0.0662 0.205943,-0.0124 0.246967,-0.15423 0.610924,-0.0413 0.710429,0.22039 0.04492,0.11815 0.08167,0.42189 0.08167,0.67497 0,0.43439 -0.01185,0.46016 -0.211667,0.46016 -0.201769,0 -0.211666,-0.0233 -0.211666,-0.49764 0,-0.55849 -0.149518,-0.79514 -0.381,-0.60303 -0.08653,0.0718 -0.127,0.26398 -0.127,0.60303 0,0.47437 -0.0099,0.49764 -0.211667,0.49764 -0.209177,0 -0.211667,-0.008 -0.211667,-0.71967 z m 1.794934,0.61807 c -0.05588,-0.0559 -0.1016,-0.32258 -0.1016,-0.59267 0,-0.38006 -0.02871,-0.49107 -0.127,-0.49107 -0.06985,0 -0.127,-0.0571 -0.127,-0.127 0,-0.0699 0.05715,-0.127 0.127,-0.127 0.07902,0 0.127,-0.08 0.127,-0.21166 0,-0.16934 0.04233,-0.21167 0.211666,-0.21167 0.169334,0 0.211667,0.0423 0.211667,0.21167 0,0.1317 0.04798,0.21166 0.127,0.21166 0.06985,0 0.127,0.0572 0.127,0.127 0,0.0699 -0.05715,0.127 -0.127,0.127 -0.181069,0 -0.181069,0.83124 0,0.90072 0.06985,0.0268 0.127,0.10181 0.127,0.16667 0,0.14698 -0.432815,0.15926 -0.575733,0.0164 z m 1.749279,-0.0603 c -0.286575,-0.23205 -0.286575,-0.88357 0,-1.11562 0.227036,-0.18385 0.522145,-0.2103 0.672187,-0.0603 0.07902,0.079 0.1016,0.0132 0.1016,-0.29633 0,-0.36802 0.01591,-0.39793 0.211667,-0.39793 h 0.211667 v 1.016 c 0,0.95955 -0.0094,1.016 -0.169334,1.016 -0.09313,0 -0.169333,-0.0394 -0.169333,-0.0876 0,-0.0604 -0.05088,-0.0604 -0.163767,0 -0.244515,0.13086 -0.471364,0.10663 -0.694687,-0.0742 z m 0.726653,-0.28032 c 0.169897,-0.24256 0.166034,-0.34345 -0.02204,-0.57571 -0.130981,-0.16176 -0.181305,-0.17529 -0.338667,-0.0911 -0.334214,0.17886 -0.202993,0.83601 0.170205,0.85238 0.03229,0.001 0.11801,-0.0821 0.1905,-0.1856 z m 1.571134,-0.57382 v -1.016 h 0.719667 c 0.663222,0 0.719667,0.0133 0.719667,0.16933 0,0.15052 -0.05644,0.16933 -0.508,0.16933 h -0.508 v 0.254 c 0,0.25144 0.0047,0.254 0.465666,0.254 0.409222,0 0.465667,0.0205 0.465667,0.16934 0,0.1488 -0.05644,0.16933 -0.465667,0.16933 -0.460962,0 -0.465666,0.003 -0.465666,0.254 v 0.254 h 0.550333 c 0.493889,0 0.550333,0.0174 0.550333,0.16933 0,0.15679 -0.05644,0.16934 -0.762,0.16934 h -0.762 z m 1.862667,0.29633 c 0,-0.65279 0.01508,-0.71967 0.162278,-0.71967 0.08925,0 0.17974,0.0476 0.201083,0.10584 0.03104,0.0847 0.06124,0.0847 0.150989,0 0.143175,-0.13507 0.437455,-0.13617 0.571497,-0.002 0.08184,0.0818 0.138738,0.0818 0.269784,0 0.223286,-0.13945 0.431014,-0.13057 0.65753,0.0281 0.163729,0.11468 0.188172,0.20817 0.188172,0.71967 0,0.57061 -0.0062,0.58787 -0.211666,0.58787 -0.203706,0 -0.211667,-0.0204 -0.211667,-0.54128 0,-0.42177 -0.03041,-0.55294 -0.137731,-0.59413 -0.249634,-0.0958 -0.370269,0.112 -0.370269,0.63777 0,0.47437 -0.0099,0.49764 -0.211667,0.49764 -0.203869,0 -0.211666,-0.0201 -0.211666,-0.54534 0,-0.56523 -0.08839,-0.72791 -0.300042,-0.55225 -0.08235,0.0683 -0.123292,0.26756 -0.123292,0.59995 0,0.47437 -0.0099,0.49764 -0.211666,0.49764 -0.209177,0 -0.211667,-0.008 -0.211667,-0.71967 z m 4.148667,0 c 0,-0.66322 0.01328,-0.71967 0.169333,-0.71967 0.09682,0 0.169334,0.0565 0.169334,0.1318 0,0.11929 0.01786,0.11929 0.188172,0 0.256021,-0.17932 0.404494,-0.16554 0.404494,0.0375 0,0.10661 -0.05645,0.16933 -0.1524,0.16933 -0.256,0 -0.3556,0.1826 -0.3556,0.65193 0,0.42221 -0.01251,0.44874 -0.211666,0.44874 -0.209177,0 -0.211667,-0.008 -0.211667,-0.71967 z m 1.385492,0.62064 c -0.199249,-0.0965 -0.369492,-0.40678 -0.369492,-0.67347 0,-0.22225 0.444584,-0.66684 0.666836,-0.66684 0.27953,0 0.577816,0.17336 0.678494,0.39432 0.182166,0.39981 0.134082,0.45235 -0.413997,0.45235 -0.511878,0 -0.641581,0.0919 -0.349989,0.24794 0.108158,0.0579 0.240702,0.0534 0.420102,-0.0144 0.338008,-0.12759 0.453118,-0.0117 0.195675,0.19704 -0.217346,0.17621 -0.542711,0.20098 -0.827629,0.063 z m 0.646508,-0.82194 c 0,-0.17219 -0.240786,-0.2774 -0.417922,-0.1826 -0.264447,0.14153 -0.209843,0.2569 0.121589,0.2569 0.162983,0 0.296333,-0.0334 0.296333,-0.0743 z m 0.846667,0.86221 c -0.140015,-0.05 -0.338667,-0.27338 -0.338667,-0.38076 0,-0.1197 0.313605,-0.0737 0.426724,0.0626 0.130086,0.15675 0.462276,0.12976 0.462276,-0.0375 0,-0.0676 -0.168004,-0.16711 -0.393074,-0.23274 -0.42228,-0.12313 -0.546021,-0.28632 -0.409927,-0.54062 0.179089,-0.33463 1.04686,-0.28539 1.163102,0.066 0.04177,0.12627 -0.283335,0.14538 -0.360101,0.0212 -0.07987,-0.12924 -0.465667,-0.10249 -0.465667,0.0323 0,0.0674 0.156431,0.15634 0.369173,0.20991 0.429604,0.10817 0.573302,0.24725 0.509108,0.49273 -0.07411,0.28339 -0.578784,0.44429 -0.962947,0.30699 z m 1.325455,-0.0961 c -0.286335,-0.31639 -0.136966,-0.55769 0.416394,-0.67266 0.392068,-0.0815 0.526738,-0.35784 0.174355,-0.35784 -0.117083,0 -0.236424,0.0381 -0.265204,0.0847 -0.06639,0.10743 -0.381,0.11139 -0.381,0.005 0,-0.14319 0.370271,-0.34347 0.635,-0.34347 0.142257,0 0.343327,0.0593 0.446827,0.1318 0.16373,0.11468 0.18817,0.20817 0.18817,0.71967 0,0.53142 -0.0163,0.58787 -0.16933,0.58787 -0.0931,0 -0.16934,-0.0372 -0.16934,-0.0826 0,-0.0537 -0.0761,-0.0537 -0.217173,0 -0.319515,0.12147 -0.501425,0.10152 -0.658699,-0.0723 z m 0.775932,-0.332 c 0.0177,-0.12431 -0.0167,-0.1905 -0.09891,-0.1905 -0.241476,0 -0.393814,0.10394 -0.393814,0.26869 0,0.25318 0.455934,0.18083 0.492724,-0.0782 z m -11.753388,-0.74688 c 0,-0.0266 0.06395,-0.11233 0.142121,-0.1905 0.13305,-0.13305 0.13305,-0.14386 0,-0.16949 -0.08648,-0.0167 -0.142121,-0.10781 -0.142121,-0.23284 0,-0.16271 0.04404,-0.20545 0.211667,-0.20545 0.179749,0 0.211667,0.0391 0.211667,0.25956 0,0.32188 -0.135216,0.5871 -0.299312,0.5871 -0.06821,0 -0.124022,-0.0218 -0.124022,-0.0484 z m 6.858001,-1.05228 c 0,-0.0466 0.05797,-0.0847 0.128815,-0.0847 0.07085,0 0.167415,-0.0857 0.214593,-0.190505 0.0683,-0.15169 0.02636,-0.33714 -0.205856,-0.91017 -0.1604,-0.39582 -0.278551,-0.73301 -0.26256,-0.74931 0.08113,-0.0827 0.209297,0.12356 0.383679,0.61751 0.106295,0.3011 0.22196,0.52971 0.257033,0.50804 0.03507,-0.0217 0.146043,-0.28665 0.246601,-0.58883 0.100559,-0.30218 0.217827,-0.54941 0.260597,-0.54941 0.04277,0 0.07776,0.0185 0.07776,0.0412 0,0.15105 -0.702109,1.869485 -0.78546,1.922435 -0.145976,0.0927 -0.315206,0.084 -0.315206,-0.0163 z M 68.890007,99.532035 c -0.571033,-0.34819 -0.571033,-1.35262 0,-1.7008 0.45746,-0.27893 1.008054,-0.16288 1.217166,0.25656 0.153322,0.30754 0.06417,0.31281 -0.216089,0.0128 -0.401796,-0.43012 -0.936575,-0.33304 -1.164023,0.21132 -0.341427,0.81715 0.441509,1.55843 1.099416,1.04092 0.122696,-0.0965 0.223085,-0.24892 0.223085,-0.33867 0,-0.13394 -0.0607,-0.16319 -0.338667,-0.16319 -0.186266,0 -0.338666,-0.0381 -0.338666,-0.0847 0,-0.0466 0.1905,-0.0847 0.423333,-0.0847 h 0.423333 v 0.513 c 0,0.32044 -0.03178,0.49335 -0.08467,0.46067 -0.04657,-0.0288 -0.08525,-0.11675 -0.08596,-0.1955 -8.47e-4,-0.0893 -0.02472,-0.10809 -0.0635,-0.05 -0.204998,0.30701 -0.700911,0.36239 -1.094759,0.12224 z m 1.825101,0.004 c -0.286575,-0.23206 -0.286575,-0.88358 0,-1.11563 0.109935,-0.089 0.292641,-0.16186 0.406016,-0.16186 0.250907,0 0.621771,0.35121 0.621771,0.58882 0,0.15671 -0.05237,0.17318 -0.550333,0.17318 -0.302683,0 -0.550333,0.0296 -0.550333,0.0658 0,0.0362 0.05931,0.15051 0.1318,0.254 0.175644,0.25077 0.575717,0.25225 0.750452,0.003 0.139253,-0.19881 0.254211,-0.17574 0.173416,0.0348 -0.05607,0.14613 -0.396647,0.31992 -0.626939,0.31992 -0.08578,0 -0.245915,-0.0728 -0.35585,-0.16185 z m 0.858454,-0.76344 c 0,-0.16255 -0.2831,-0.35296 -0.487874,-0.32814 -0.116922,0.0142 -0.269179,0.11149 -0.338349,0.21626 -0.125354,0.18988 -0.124213,0.1905 0.350229,0.1905 0.261797,0 0.475994,-0.0354 0.475994,-0.0786 z m 0.508,0.20562 c 0,-0.39582 0.03366,-0.71967 0.07479,-0.71967 0.113727,0 0.144201,0.23908 0.110618,0.86784 -0.04377,0.81942 -0.18541,0.70623 -0.18541,-0.14817 z m 1.016,0.22785 c 0,-0.6255 -0.130877,-0.82397 -0.495294,-0.75109 -0.273836,0.0548 -0.372529,-0.053 -0.132781,-0.14503 0.24373,-0.0935 0.456574,-0.0536 0.628075,0.11794 0.134598,0.1346 0.169333,0.28222 0.169333,0.71966 0,0.31045 -0.03691,0.55034 -0.08467,0.55034 -0.04673,0 -0.08467,-0.22039 -0.08467,-0.49182 z m 0.580879,0.32997 c -0.286574,-0.23206 -0.286574,-0.88358 0,-1.11563 0.109935,-0.089 0.292641,-0.16186 0.406016,-0.16186 0.250907,0 0.621772,0.35121 0.621772,0.58882 0,0.15671 -0.05237,0.17318 -0.550334,0.17318 -0.302683,0 -0.550333,0.0296 -0.550333,0.0658 0,0.0362 0.05931,0.15051 0.131801,0.254 0.175643,0.25077 0.575717,0.25225 0.750451,0.003 0.139254,-0.19881 0.254211,-0.17574 0.173417,0.0348 -0.05608,0.14613 -0.396647,0.31992 -0.62694,0.31992 -0.08578,0 -0.245915,-0.0728 -0.35585,-0.16185 z m 0.858454,-0.76344 c 0,-0.16255 -0.2831,-0.35296 -0.487874,-0.32814 -0.116922,0.0142 -0.269179,0.11149 -0.338349,0.21626 -0.125354,0.18988 -0.124212,0.1905 0.35023,0.1905 0.261796,0 0.475993,-0.0354 0.475993,-0.0786 z m 0.423334,0.20562 c 0,-0.42333 0.03486,-0.71967 0.08467,-0.71967 0.04657,0 0.08467,0.058 0.08467,0.12896 0,0.11247 0.02739,0.111 0.214309,-0.0115 0.11787,-0.0772 0.241695,-0.111 0.275167,-0.075 0.03347,0.036 0.0085,0.084 -0.05556,0.10672 -0.300829,0.10678 -0.433917,0.35967 -0.433917,0.82449 0,0.25611 -0.0381,0.46566 -0.08467,0.46566 -0.0498,0 -0.08467,-0.29633 -0.08467,-0.71966 z m 0.986789,0.56483 c -0.293911,-0.32476 -0.13353,-0.5656 0.437455,-0.6569 0.404117,-0.0646 0.499462,-0.1557 0.350678,-0.33497 -0.149719,-0.1804 -0.47295,-0.15053 -0.670957,0.062 -0.140394,0.15069 -0.172632,0.1595 -0.172632,0.0471 0,-0.17083 0.316334,-0.40177 0.550333,-0.40177 0.09569,0 0.258667,0.0593 0.362161,0.1318 0.158561,0.11106 0.188173,0.21099 0.188173,0.635 0,0.27903 0.03772,0.5032 0.08467,0.5032 0.04657,0 0.08467,0.0381 0.08467,0.0847 0,0.13289 -0.253831,0.099 -0.307582,-0.0411 -0.0427,-0.11126 -0.06899,-0.11126 -0.227848,0 -0.242445,0.16982 -0.509482,0.15839 -0.679114,-0.029 z m 0.721044,-0.15462 c 0.08516,-0.0771 0.154833,-0.20802 0.154833,-0.29101 0,-0.12638 -0.05156,-0.14315 -0.3175,-0.10326 -0.419222,0.0629 -0.597375,0.22319 -0.448026,0.40315 0.142055,0.17116 0.416154,0.16718 0.610693,-0.009 z m 0.662833,-0.70654 c 0,-0.62089 0.03293,-1.016 0.08467,-1.016 0.05174,0 0.08467,0.39511 0.08467,1.016 0,0.62089 -0.03293,1.016 -0.08467,1.016 -0.05174,0 -0.08467,-0.39511 -0.08467,-1.016 z m 0.508,0.29633 c 0,-0.42333 0.03486,-0.71967 0.08467,-0.71967 0.0498,0 0.08467,0.29634 0.08467,0.71967 0,0.42333 -0.03486,0.71967 -0.08467,0.71967 -0.0498,0 -0.08467,-0.29634 -0.08467,-0.71967 z m 0.694267,0.61807 c -0.05752,-0.0575 -0.1016,-0.33302 -0.1016,-0.635 0,-0.41769 -0.02755,-0.5334 -0.127,-0.5334 -0.06985,0 -0.127,-0.0381 -0.127,-0.0847 0,-0.0466 0.05715,-0.0847 0.127,-0.0847 0.07902,0 0.127,-0.08 0.127,-0.21167 0,-0.11642 0.0381,-0.21167 0.08467,-0.21167 0.04657,0 0.08467,0.0952 0.08467,0.21167 0,0.15522 0.04516,0.21167 0.169334,0.21167 0.09313,0 0.169333,0.0381 0.169333,0.0847 0,0.0466 -0.0762,0.0847 -0.169333,0.0847 -0.150808,0 -0.169334,0.0564 -0.169334,0.51592 0,0.44473 0.02337,0.52204 0.169334,0.56021 0.09313,0.0244 0.169333,0.0779 0.169333,0.11908 0,0.11006 -0.288567,0.091 -0.4064,-0.0268 z m 0.631189,-0.0532 c -0.293911,-0.32477 -0.13353,-0.56561 0.437455,-0.65691 0.404118,-0.0646 0.499462,-0.15569 0.350679,-0.33497 -0.14972,-0.1804 -0.472951,-0.15053 -0.670958,0.062 -0.140394,0.1507 -0.172632,0.1595 -0.172632,0.0471 0,-0.17083 0.316335,-0.40176 0.550334,-0.40176 0.09569,0 0.258667,0.0593 0.362161,0.1318 0.15856,0.11106 0.188172,0.21098 0.188172,0.635 0,0.27902 0.03772,0.5032 0.08467,0.5032 0.04657,0 0.08467,0.0381 0.08467,0.0847 0,0.13288 -0.25383,0.099 -0.307582,-0.0411 -0.0427,-0.11127 -0.06899,-0.11127 -0.227848,0 -0.242445,0.16981 -0.509482,0.15839 -0.679114,-0.0291 z m 0.721044,-0.15462 c 0.08516,-0.0771 0.154834,-0.20803 0.154834,-0.29102 0,-0.12638 -0.05157,-0.14315 -0.3175,-0.10326 -0.419223,0.0629 -0.597375,0.22319 -0.448027,0.40315 0.142055,0.17116 0.416154,0.16718 0.610693,-0.009 z m 0.8491,0.20785 c -0.05752,-0.0575 -0.1016,-0.33302 -0.1016,-0.635 0,-0.41769 -0.02755,-0.5334 -0.127,-0.5334 -0.06985,0 -0.127,-0.0381 -0.127,-0.0847 0,-0.0466 0.05715,-0.0847 0.127,-0.0847 0.07902,0 0.127,-0.08 0.127,-0.21167 0,-0.11641 0.0381,-0.21166 0.08467,-0.21166 0.04657,0 0.08467,0.0952 0.08467,0.21166 0,0.15523 0.04516,0.21167 0.169333,0.21167 0.09313,0 0.169334,0.0381 0.169334,0.0847 0,0.0466 -0.0762,0.0847 -0.169334,0.0847 -0.150807,0 -0.169333,0.0564 -0.169333,0.51593 0,0.44472 0.02337,0.52204 0.169333,0.56021 0.09313,0.0243 0.169334,0.0779 0.169334,0.11907 0,0.11006 -0.288567,0.091 -0.406401,-0.0268 z m 1.579947,-0.0603 c -0.286575,-0.23205 -0.286575,-0.88357 0,-1.11563 0.242285,-0.19619 0.502939,-0.20656 0.754948,-0.0301 0.18702,0.131 0.188172,0.12918 0.188172,-0.29633 0,-0.23547 0.0381,-0.42814 0.08467,-0.42814 0.05174,0 0.08467,0.39512 0.08467,1.016 0,0.62089 -0.03293,1.016 -0.08467,1.016 -0.04657,0 -0.08467,-0.0593 -0.08467,-0.1318 0,-0.11929 -0.01786,-0.11929 -0.188172,0 -0.252009,0.17652 -0.512663,0.16614 -0.754948,-0.0301 z m 0.81132,-0.19565 c 0.167532,-0.23919 0.167532,-0.48514 0,-0.72433 -0.270208,-0.38577 -0.8842,-0.13428 -0.8842,0.36217 0,0.29155 0.238876,0.55033 0.508,0.55033 0.156574,0 0.291761,-0.0676 0.3762,-0.18817 z m 0.797346,0.19565 c -0.286574,-0.23205 -0.286574,-0.88357 0,-1.11563 0.109935,-0.089 0.292641,-0.16185 0.406016,-0.16185 0.250907,0 0.621772,0.35121 0.621772,0.58882 0,0.1567 -0.05237,0.17318 -0.550334,0.17318 -0.302683,0 -0.550333,0.0296 -0.550333,0.0658 0,0.0362 0.05931,0.1505 0.131801,0.254 0.175643,0.25077 0.575717,0.25225 0.750451,0.003 0.139254,-0.19881 0.254211,-0.17574 0.173417,0.0348 -0.05608,0.14613 -0.396647,0.31992 -0.62694,0.31992 -0.08578,0 -0.245915,-0.0728 -0.35585,-0.16185 z m 0.858454,-0.76343 c 0,-0.16255 -0.2831,-0.35296 -0.487874,-0.32815 -0.116922,0.0142 -0.269179,0.11149 -0.338349,0.21627 -0.125354,0.18988 -0.124213,0.1905 0.35023,0.1905 0.261796,0 0.475993,-0.0354 0.475993,-0.0786 z m 1.549779,0.75968 c -0.777109,-0.47383 -0.417354,-1.86576 0.482221,-1.86576 0.272825,0 0.762,0.29773 0.762,0.46379 0,0.1749 -0.04263,0.16258 -0.288636,-0.0834 -0.571696,-0.5717 -1.42018,0.11479 -1.150783,0.93107 0.232178,0.70351 0.928685,0.74429 1.323656,0.0775 0.150514,-0.2541 0.227731,-0.0793 0.08602,0.19474 -0.229564,0.44393 -0.750578,0.56494 -1.21448,0.28209 z m 1.638344,0.0108 c -0.293911,-0.32476 -0.133531,-0.5656 0.437455,-0.65691 0.404117,-0.0646 0.499462,-0.15569 0.350678,-0.33496 -0.149719,-0.1804 -0.47295,-0.15053 -0.670957,0.062 -0.140394,0.15069 -0.172632,0.15949 -0.172632,0.0471 0,-0.17083 0.316334,-0.40177 0.550333,-0.40177 0.09569,0 0.258667,0.0593 0.362161,0.1318 0.158561,0.11106 0.188173,0.21099 0.188173,0.635 0,0.27902 0.03772,0.5032 0.08467,0.5032 0.04657,0 0.08467,0.0381 0.08467,0.0847 0,0.13289 -0.253831,0.099 -0.307582,-0.0411 -0.0427,-0.11127 -0.06899,-0.11127 -0.227848,0 -0.242445,0.16982 -0.509482,0.15839 -0.679114,-0.0291 z m 0.721044,-0.15462 c 0.08516,-0.0771 0.154833,-0.20802 0.154833,-0.29101 0,-0.12638 -0.05156,-0.14315 -0.3175,-0.10326 -0.419222,0.0629 -0.597375,0.22319 -0.448026,0.40314 0.142055,0.17117 0.416154,0.16719 0.610693,-0.009 z m 0.8491,0.20786 c -0.05752,-0.0575 -0.1016,-0.33303 -0.1016,-0.635 0,-0.41769 -0.02755,-0.5334 -0.127,-0.5334 -0.06985,0 -0.127,-0.0381 -0.127,-0.0847 0,-0.0466 0.05715,-0.0847 0.127,-0.0847 0.07902,0 0.127,-0.08 0.127,-0.21167 0,-0.11642 0.0381,-0.21167 0.08467,-0.21167 0.04657,0 0.08467,0.0952 0.08467,0.21167 0,0.15522 0.04516,0.21167 0.169334,0.21167 0.09313,0 0.169333,0.0381 0.169333,0.0847 0,0.0466 -0.0762,0.0847 -0.169333,0.0847 -0.150808,0 -0.169334,0.0564 -0.169334,0.51592 0,0.44472 0.02337,0.52204 0.169334,0.56021 0.09313,0.0243 0.169333,0.0779 0.169333,0.11907 0,0.11006 -0.288567,0.091 -0.4064,-0.0268 z m 0.715856,-0.0532 c -0.293911,-0.32477 -0.13353,-0.56561 0.437455,-0.65691 0.404117,-0.0646 0.499462,-0.1557 0.350678,-0.33497 -0.149719,-0.1804 -0.47295,-0.15053 -0.670957,0.062 -0.140394,0.1507 -0.172632,0.1595 -0.172632,0.0471 0,-0.17083 0.316334,-0.40177 0.550333,-0.40177 0.09569,0 0.258667,0.0593 0.362161,0.1318 0.158561,0.11106 0.188173,0.21099 0.188173,0.635 0,0.27903 0.03772,0.5032 0.08467,0.5032 0.04657,0 0.08467,0.0381 0.08467,0.0847 0,0.13289 -0.253831,0.099 -0.307582,-0.0411 -0.0427,-0.11126 -0.06899,-0.11126 -0.227848,0 -0.242445,0.16982 -0.509482,0.1584 -0.679114,-0.0291 z m 0.721044,-0.15463 c 0.08516,-0.0771 0.154833,-0.20802 0.154833,-0.29101 0,-0.12638 -0.05156,-0.14315 -0.3175,-0.10326 -0.419222,0.0629 -0.597375,0.22319 -0.448026,0.40315 0.142055,0.17116 0.416154,0.16718 0.610693,-0.009 z m 0.662833,-0.70654 c 0,-0.62089 0.03293,-1.016 0.08467,-1.016 0.05174,0 0.08467,0.39511 0.08467,1.016 0,0.62089 -0.03293,1.016 -0.08467,1.016 -0.05174,0 -0.08467,-0.39511 -0.08467,-1.016 z m 0.648123,0.86117 c -0.158024,-0.17462 -0.205942,-1.2845 -0.05546,-1.2845 0.04748,0 0.08467,0.23424 0.08467,0.5334 0,0.57176 0.08797,0.7366 0.393133,0.7366 0.282804,0 0.453533,-0.30988 0.453533,-0.82318 0,-0.24575 0.0381,-0.44682 0.08467,-0.44682 0.0498,0 0.08467,0.29633 0.08467,0.71966 0,0.42334 -0.03486,0.71967 -0.08467,0.71967 -0.04657,0 -0.08467,-0.0593 -0.08467,-0.1318 0,-0.11929 -0.01786,-0.11929 -0.188172,0 -0.25049,0.17545 -0.516132,0.16655 -0.687705,-0.023 z m 1.383877,-0.56484 c 0,-0.39581 0.03366,-0.71966 0.07479,-0.71966 0.113727,0 0.144201,0.23907 0.110618,0.86783 -0.04377,0.81942 -0.18541,0.70623 -0.18541,-0.14817 z m 1.016,0.22785 c 0,-0.6255 -0.130876,-0.82397 -0.495294,-0.75109 -0.273835,0.0548 -0.372529,-0.053 -0.132781,-0.14503 0.24373,-0.0935 0.456575,-0.0536 0.628075,0.11794 0.134598,0.1346 0.169334,0.28222 0.169334,0.71967 0,0.31044 -0.03691,0.55033 -0.08467,0.55033 -0.04673,0 -0.08467,-0.22038 -0.08467,-0.49182 z m 1.833456,0.33699 c -0.293911,-0.32477 -0.13353,-0.56561 0.437455,-0.65691 0.404118,-0.0646 0.499462,-0.1557 0.350679,-0.33497 -0.14972,-0.1804 -0.472951,-0.15053 -0.670958,0.062 -0.140394,0.1507 -0.172631,0.1595 -0.172631,0.0471 0,-0.17083 0.316334,-0.40177 0.550333,-0.40177 0.09569,0 0.258667,0.0593 0.362161,0.1318 0.15856,0.11106 0.188172,0.21099 0.188172,0.635 0,0.27903 0.03772,0.5032 0.08467,0.5032 0.04657,0 0.08467,0.0381 0.08467,0.0847 0,0.13289 -0.253831,0.099 -0.307583,-0.0411 -0.0427,-0.11126 -0.06899,-0.11126 -0.227848,0 -0.242444,0.16982 -0.509481,0.1584 -0.679114,-0.0291 z m 0.721045,-0.15463 c 0.08516,-0.0771 0.154833,-0.20802 0.154833,-0.29101 0,-0.12638 -0.05156,-0.14315 -0.3175,-0.10326 -0.419223,0.0629 -0.597375,0.22319 -0.448026,0.40315 0.142054,0.17116 0.416153,0.16718 0.610693,-0.009 z m -30.055154,-0.0989 c -0.0088,-0.10821 -0.111259,-0.48048 -0.227675,-0.82728 -0.248697,-0.74086 -0.251939,-0.7658 -0.08108,-0.624 0.09185,0.0762 0.157166,0.0818 0.22019,0.0188 0.08788,-0.0879 -0.117028,-0.19784 -0.435445,-0.23366 -0.06985,-0.008 -0.2794,-0.081 -0.465667,-0.16253 -0.186266,-0.0815 -0.477624,-0.15447 -0.647461,-0.16208 -0.169838,-0.008 -0.291414,-0.0424 -0.27017,-0.0773 0.05467,-0.0899 0.808189,-0.0766 0.955922,0.0169 0.06763,0.0428 0.162877,0.052 0.211667,0.0204 0.14593,-0.0943 0.481391,-0.0786 0.384739,0.018 -0.0464,0.0464 -0.08436,0.14054 -0.08436,0.20919 0,0.0901 0.05912,0.0693 0.212573,-0.0749 0.158038,-0.14847 0.185189,-0.21708 0.105833,-0.26746 -0.07692,-0.0488 -0.06535,-0.0681 0.04143,-0.0691 0.170444,-0.002 0.187413,0.10584 0.05566,0.35203 -0.06565,0.12266 -0.06623,0.19913 -0.002,0.26335 0.06422,0.0642 0.0635,0.12302 -0.0025,0.2025 -0.06771,0.0816 -0.06591,0.17731 0.0066,0.35247 0.05478,0.13225 0.08567,0.46566 0.06865,0.7409 -0.01703,0.27525 -0.03816,0.41192 -0.04697,0.30372 z m -0.524009,-1.8726 c 0,-0.0438 -0.0381,-0.10321 -0.08467,-0.13199 -0.04657,-0.0288 -0.08467,0.007 -0.08467,0.0797 0,0.0726 0.0381,0.13199 0.08467,0.13199 0.04657,0 0.08467,-0.0358 0.08467,-0.0797 z m -6.519333,1.43662 c 0,-0.19051 0.05391,-0.47541 0.119794,-0.63309 0.06589,-0.15769 0.09446,-0.31498 0.0635,-0.34953 -0.03096,-0.0345 -0.0113,-0.037 0.04369,-0.005 0.05499,0.0315 0.125481,0.016 0.156645,-0.0344 0.09302,-0.15051 -0.01708,-0.18593 -0.22821,-0.0734 -0.177344,0.0945 -0.186224,0.0914 -0.08604,-0.0301 0.08302,-0.10067 0.08846,-0.17889 0.02117,-0.30462 -0.129822,-0.24258 -0.112079,-0.34984 0.05762,-0.34835 0.106774,9.3e-4 0.118347,0.0202 0.04143,0.0691 -0.07936,0.0504 -0.05221,0.11899 0.105833,0.26746 0.153449,0.14416 0.212573,0.16498 0.212573,0.0749 0,-0.0687 -0.03756,-0.16238 -0.08346,-0.20828 -0.05483,-0.0548 -0.02403,-0.0835 0.0898,-0.0835 0.126644,0 0.162277,0.042 0.132452,0.15602 -0.02511,0.096 -0.0027,0.14196 0.05837,0.11944 0.05454,-0.0201 0.09176,-0.0731 0.08271,-0.11772 -0.01893,-0.0933 0.02063,-0.1026 0.651463,-0.15265 l 0.465667,-0.0369 -0.691537,0.23062 c -0.453916,0.15137 -0.691916,0.27425 -0.692639,0.35761 -6.06e-4,0.0699 -0.0787,0.33655 -0.173533,0.59267 -0.09484,0.25612 -0.173674,0.53009 -0.175194,0.60884 -0.0015,0.0787 -0.04086,0.16671 -0.08743,0.19549 -0.05117,0.0316 -0.08467,-0.0847 -0.08467,-0.29405 z m 6.700881,0.0189 c -0.09239,-0.21591 -0.0903,-0.22089 0.02874,-0.0685 0.07061,0.0904 0.128376,0.19516 0.128376,0.23283 0,0.12869 -0.05743,0.0686 -0.157119,-0.16435 z m -6.362215,-0.0162 c 0,-0.0438 0.03766,-0.10295 0.0837,-0.1314 0.04799,-0.0297 0.06219,0.004 0.03328,0.0797 -0.05629,0.14668 -0.116972,0.17351 -0.116972,0.0517 z m 0.24933,-0.4016 c 0.04913,-0.10171 0.08934,-0.29949 0.08934,-0.4395 0,-0.14002 0.03766,-0.27785 0.0837,-0.3063 0.04674,-0.0289 0.06288,0.002 0.03656,0.0711 -0.02592,0.0676 -0.0064,0.14799 0.0433,0.17873 0.04974,0.0307 0.09044,-0.004 0.09044,-0.0761 0,-0.0726 0.03453,-0.132 0.07674,-0.132 0.04221,0 0.05681,0.0762 0.03246,0.16933 -0.02435,0.0931 -0.09699,0.16934 -0.161407,0.16934 -0.06442,0 -0.117125,0.0499 -0.117125,0.11081 0,0.0609 -0.05925,0.18478 -0.131671,0.27517 -0.127193,0.15876 -0.128633,0.15806 -0.04233,-0.0206 z m 5.885522,0.0523 c -0.03069,-0.0497 -0.03765,-0.10846 -0.01546,-0.13065 0.02219,-0.0222 0.06291,0.0184 0.09049,0.0903 0.05725,0.14919 0.0085,0.17543 -0.07503,0.0404 z m -0.115079,-0.31187 c -0.0046,-0.0582 -0.06559,-0.10583 -0.135439,-0.10583 -0.06985,0 -0.127,-0.054 -0.127,-0.11995 0,-0.066 -0.04763,-0.13916 -0.105834,-0.16264 -0.05821,-0.0235 -0.0213,-0.0457 0.08201,-0.0494 0.141529,-0.005 0.176356,0.0298 0.141255,0.14148 -0.04285,0.13627 -0.03649,0.13586 0.0792,-0.005 0.153884,-0.18747 0.222062,-0.0902 0.137142,0.19557 -0.03459,0.11641 -0.06669,0.16404 -0.07133,0.10583 z M 77.8389,97.792965 c 0,-0.0699 0.0381,-0.127 0.08467,-0.127 0.04657,0 0.08467,0.0572 0.08467,0.127 0,0.0699 -0.0381,0.127 -0.08467,0.127 -0.04657,0 -0.08467,-0.0571 -0.08467,-0.127 z"
       id="path826"
       inkscape:connector-curvature="0" />
  </g>
</svg>
