<?xml version="1.0" encoding="UTF-8"?>
<svg id="Capa_1" data-name="Capa 1" xmlns="http://www.w3.org/2000/svg" viewBox="0 0 393.64 100">
  <defs>
    <style>
      .cls-1, .cls-2 {
        fill: #fff;
      }

      .cls-2 {
        fill-rule: evenodd;
      }
    </style>
  </defs>
  <path class="cls-2" d="M12.95,15.94c.45,.52,.42,.7,.59,1.4-.22,.07-.56,.3-.72,.52l-3.13-3.37c1.16-.11,2.54,.57,3.26,1.45h0Zm1.94,2.27c.39,.39,.39,1.03,0,1.42-.39,.39-1.02,.39-1.42,0-.39-.39-.39-1.03,0-1.42,.39-.39,1.03-.39,1.42,0h0Zm.47-3.66c.12,.32,.18,1.06,.64,1.57-.62,.52-.74,.8-.95,1.31-.21-.12-.42-.19-.64-.21l.95-2.68h0Zm13.45-.14l-2.57,.8c-4.06,1.46-5.51,4.49-8.57,4.31-.65-.07-1.2-.2-1.74-.5,.02-.2-.04-.43-.1-.62,2.59-1.54,8.18-3.3,12.98-3.99h0Zm-11.56,7.56l-2.01-1.67c1.39-.03,2.02-.04,2.02-.04-.25,1.06-.02,1.71-.02,1.71h0Zm-5.93,8.33c-1.75,4.51-1.44,4.66-1.94,6.53,.51-6.3,2.39-11.5,4.21-16.27,0,0,.42,.13,.63,.09,.38,.44,.46,1.06,.46,1.06,.94,3.08-2,5.05-3.37,8.59h0Zm-1.57-10.26c.43-.18,2.69-.93,2.69-.93l.17,.54c-.79,.47-1.19,1.1-1.2,1.2-.15-.01-1.04-.67-1.66-.8h0Zm.57-2.24c-.21,.89-.94,1.75-1.43,2.47,.62,.31,1.43,.73,1.97,1.2-1.2,1.82-1.63,2.72-1.83,4.91l.16,11.31c1.15-3.4,2.47-7.15,4.35-9.92,.54-.79,.64-1,.95-1.46,.37-.57,1.17-1.74,1.14-3.74,.68-.14,1.5,.04,2.28,.1-.09-.86-.2-1.02,.02-2.42,3.27-.12,3.89-2.12,7.42-3.95,1.61-.84,2.3-1.18,4.43-1.97-6.62,.02-9.54-1.06-13.23,1.42-.43-.57-.65-1.36-.94-2.03-.52,.41-1.64,1.15-2.49,1.37-.98-.96-2.42-1.5-4.09-1.35-.24,1.35,.23,3.16,1.29,4.07h0Zm2.63,65.73c.45-.53,.42-.7,.59-1.41-.22-.07-.56-.3-.72-.52l-3.13,3.37c1.16,.11,2.54-.56,3.26-1.44h0Zm1.94-2.27c.39-.39,.39-1.03,0-1.41-.39-.39-1.02-.39-1.42,0-.39,.39-.39,1.03,0,1.42,.39,.39,1.03,.39,1.42,0h0Zm.47,3.67c.12-.32,.18-1.06,.64-1.56-.62-.52-.74-.81-.95-1.32-.21,.12-.42,.19-.64,.21l.95,2.68h0Zm13.45,.14l-2.57-.8c-4.06-1.46-5.51-4.49-8.57-4.32-.65,.07-1.2,.2-1.74,.5,.02,.2-.04,.43-.1,.63,2.59,1.54,8.18,3.3,12.98,3.99h0Zm-11.56-7.56l-2.01,1.67c1.39,.03,2.02,.04,2.02,.04-.25-1.05-.02-1.71-.02-1.71h0Zm-5.93-8.33c-1.75-4.51-1.44-4.66-1.94-6.53,.51,6.3,2.39,11.5,4.21,16.27,0,0,.42-.13,.63-.09,.38-.44,.46-1.06,.46-1.06,.94-3.08-2-5.05-3.37-8.59h0Zm-1.57,10.26c.43,.18,2.69,.93,2.69,.93l.17-.53c-.79-.47-1.19-1.1-1.2-1.2-.15,.01-1.04,.67-1.66,.8h0Zm.57,2.24c-.21-.89-.94-1.74-1.43-2.47,.62-.31,1.43-.73,1.97-1.2-1.2-1.81-1.63-2.72-1.83-4.91l.16-11.31c1.15,3.4,2.47,7.15,4.35,9.93,.54,.78,.64,.99,.95,1.46,.37,.57,1.17,1.74,1.14,3.74,.68,.14,1.5-.04,2.28-.1-.09,.86-.2,1.02,.02,2.42,3.27,.13,3.89,2.12,7.42,3.95,1.61,.84,2.3,1.18,4.43,1.97-6.62-.02-9.54,1.06-13.23-1.42-.43,.57-.65,1.36-.94,2.03-.52-.41-1.64-1.15-2.49-1.37-.98,.96-2.42,1.49-4.09,1.34-.24-1.35,.23-3.16,1.29-4.07h0ZM67.25,16c-.45,.52-.42,.7-.59,1.41,.22,.06,.56,.29,.72,.52l3.13-3.37c-1.16-.11-2.54,.56-3.26,1.44h0Zm-1.94,2.27c-.39,.39-.39,1.02,0,1.42,.39,.39,1.03,.39,1.42,0,.39-.4,.39-1.03,0-1.42-.39-.39-1.03-.39-1.42,0h0Zm-.47-3.67c-.12,.32-.18,1.06-.64,1.57,.61,.52,.74,.81,.95,1.31,.21-.12,.42-.19,.64-.21l-.95-2.68h0Zm-13.45-.14l2.57,.8c4.06,1.46,5.51,4.49,8.57,4.31,.65-.07,1.2-.2,1.74-.5-.02-.2,.04-.43,.1-.62-2.59-1.55-8.18-3.3-12.97-3.99h0Zm11.56,7.56l2.01-1.67c-1.39-.03-2.02-.04-2.02-.04,.25,1.06,.02,1.71,.02,1.71h0Zm5.93,8.33c1.75,4.51,1.44,4.66,1.93,6.53-.51-6.3-2.39-11.5-4.21-16.27,0,0-.42,.13-.64,.09-.38,.43-.46,1.06-.46,1.06-.94,3.07,2,5.05,3.37,8.59h0Zm1.57-10.26c-.43-.18-2.69-.93-2.69-.93l-.17,.53c.79,.47,1.19,1.1,1.2,1.2,.16-.01,1.04-.67,1.66-.8h0Zm-.57-2.24c.21,.89,.94,1.74,1.43,2.47-.62,.31-1.43,.73-1.97,1.2,1.2,1.82,1.63,2.72,1.83,4.91l-.16,11.3c-1.14-3.4-2.46-7.15-4.35-9.93-.54-.79-.64-.99-.94-1.46-.37-.57-1.17-1.74-1.14-3.74-.68-.14-1.5,.04-2.29,.1,.1-.85,.21-1.02-.02-2.42-3.27-.12-3.89-2.12-7.41-3.95-1.61-.84-2.3-1.18-4.43-1.97,6.62,.02,9.54-1.06,13.23,1.42,.43-.57,.65-1.36,.94-2.03,.52,.41,1.64,1.15,2.49,1.37,.98-.96,2.42-1.5,4.09-1.34,.24,1.35-.23,3.16-1.29,4.07h0Zm-2.63,65.73c-.45-.52-.42-.7-.59-1.41,.22-.06,.56-.3,.72-.52l3.13,3.37c-1.16,.11-2.54-.57-3.26-1.45h0Zm-1.94-2.27c-.39-.39-.39-1.03,0-1.42,.39-.39,1.03-.39,1.42,0,.39,.39,.39,1.02,0,1.42-.39,.39-1.03,.39-1.42,0h0Zm-.47,3.66c-.12-.31-.18-1.06-.64-1.56,.61-.52,.74-.81,.95-1.32,.21,.12,.42,.19,.64,.21l-.95,2.67h0Zm-13.45,.14l2.57-.8c4.06-1.46,5.51-4.49,8.57-4.32,.65,.07,1.2,.2,1.74,.5-.02,.2,.04,.43,.1,.63-2.59,1.54-8.18,3.3-12.97,3.99h0Zm11.56-7.56l2.01,1.67c-1.39,.03-2.02,.04-2.02,.04,.25-1.06,.02-1.71,.02-1.71h0Zm5.93-8.33c1.75-4.51,1.44-4.66,1.93-6.53-.51,6.3-2.39,11.5-4.21,16.27,0,0-.42-.13-.64-.09-.38-.44-.46-1.06-.46-1.06-.94-3.07,2-5.05,3.37-8.59h0Zm1.57,10.26c-.43,.18-2.69,.93-2.69,.93l-.17-.53c.79-.47,1.19-1.1,1.2-1.2,.16,.01,1.04,.67,1.66,.8h0Zm-.57,2.24c.21-.89,.94-1.74,1.43-2.46-.62-.31-1.43-.73-1.97-1.2,1.2-1.81,1.63-2.72,1.83-4.91l-.16-11.31c-1.14,3.4-2.46,7.15-4.35,9.93-.54,.78-.64,.99-.94,1.46-.37,.57-1.17,1.75-1.14,3.75-.68,.14-1.5-.04-2.29-.1,.1,.85,.21,1.02-.02,2.42-3.27,.12-3.89,2.12-7.41,3.95-1.61,.84-2.3,1.18-4.43,1.97,6.62-.02,9.54,1.06,13.23-1.42,.43,.57,.65,1.36,.94,2.03,.52-.41,1.64-1.15,2.49-1.37,.98,.96,2.42,1.5,4.09,1.34,.24-1.35-.23-3.16-1.29-4.07h0Zm-8.44-12.94c3.36-5.31,5.36-11.91,5.36-19.07s-1.99-13.76-5.36-19.07v-2.41c4.18,5.78,6.71,13.28,6.71,21.47s-2.53,15.69-6.71,21.48v-2.41h0Zm-12.05,12.17v-1.49c1.97-.87,3.83-2,5.55-3.37v1.71c-1.73,1.28-3.59,2.34-5.55,3.15h0Zm-9.29,1.86c-.93,0-1.86-.06-2.76-.16v-1.38c.91,.11,1.83,.17,2.76,.17s1.87-.06,2.79-.17v1.38c-.92,.11-1.85,.16-2.79,.16h0Zm-14.82-4.99v-1.71c1.72,1.36,3.58,2.5,5.55,3.37v1.48c-1.96-.81-3.82-1.86-5.55-3.14h0Zm-13.23-28.1c0-8.21,2.53-15.72,6.73-21.5v2.41c-3.37,5.31-5.38,11.93-5.38,19.1s2,13.79,5.38,19.1v2.41c-4.19-5.79-6.73-13.3-6.73-21.5h0ZM30.83,18.48v1.48c-1.97,.87-3.83,2-5.55,3.37v-1.71c1.73-1.27,3.59-2.33,5.55-3.14h0Zm9.27-1.85c.94,0,1.87,.06,2.79,.17v1.38c-.92-.11-1.85-.17-2.79-.17s-1.86,.06-2.76,.17v-1.38c.91-.1,1.83-.16,2.76-.16h0Zm14.84,5.01v1.71c-1.72-1.37-3.58-2.51-5.55-3.37v-1.49c1.96,.81,3.82,1.87,5.55,3.15h0Zm6.5,11.06c2.73,4.87,4.32,10.73,4.32,17.03s-1.59,12.16-4.32,17.03V32.7h0Zm-12.05-11.56c1.98,.92,3.84,2.12,5.55,3.57v50.03c-1.71,1.45-3.57,2.65-5.55,3.57V21.14h0Zm-12.05-1.89c.91-.12,1.83-.18,2.76-.18s1.87,.06,2.79,.18v60.95c-.92,.11-1.85,.18-2.79,.18s-1.86-.06-2.76-.18V19.24h0Zm-12.05,5.45c1.71-1.45,3.57-2.65,5.55-3.56v57.19c-1.98-.92-3.84-2.12-5.55-3.56V24.69h0Zm-6.5,42.09c-2.74-4.88-4.34-10.75-4.34-17.06s1.6-12.19,4.34-17.06v34.12h0ZM40.1,14.07c-16.89,0-30.58,15.96-30.58,35.65s13.69,35.65,30.58,35.65,30.58-15.96,30.58-35.65S56.99,14.07,40.1,14.07h0Z"/>
  <g>
    <path class="cls-1" d="M97.59,36.45h-1.19l-.22-3.16h-.05c-1.17,2.48-3.5,3.53-6.01,3.53-5.48,0-8.2-4.31-8.2-9.06s2.73-9.05,8.2-9.05c3.65,0,6.62,1.97,7.25,5.77h-1.65c-.22-2-2.29-4.36-5.6-4.36-4.6,0-6.55,3.85-6.55,7.64s1.95,7.64,6.55,7.64c3.85,0,6.08-2.7,6.01-6.38h-5.91v-1.41h7.38v8.84Z"/>
    <path class="cls-1" d="M101.39,30.59c.03,2.24,1.19,4.94,4.14,4.94,2.24,0,3.46-1.31,3.94-3.21h1.53c-.66,2.85-2.31,4.5-5.48,4.5-3.99,0-5.67-3.07-5.67-6.65,0-3.31,1.68-6.64,5.67-6.64s5.65,3.53,5.53,7.06h-9.66Zm8.13-1.29c-.07-2.31-1.51-4.48-3.99-4.48s-3.89,2.19-4.14,4.48h8.13Z"/>
    <path class="cls-1" d="M113.11,23.89h1.53v2.17h.05c.56-1.51,2.24-2.53,4.01-2.53,3.53,0,4.6,1.85,4.6,4.84v8.08h-1.53v-7.84c0-2.17-.71-3.8-3.19-3.8s-3.89,1.85-3.94,4.31v7.33h-1.53v-12.56Z"/>
    <path class="cls-1" d="M127.11,30.59c.03,2.24,1.19,4.94,4.14,4.94,2.24,0,3.46-1.31,3.94-3.21h1.53c-.66,2.85-2.31,4.5-5.48,4.5-3.99,0-5.67-3.07-5.67-6.65,0-3.31,1.68-6.64,5.67-6.64s5.65,3.53,5.53,7.06h-9.66Zm8.13-1.29c-.07-2.31-1.51-4.48-3.99-4.48s-3.89,2.19-4.14,4.48h8.13Z"/>
    <path class="cls-1" d="M138.85,23.89h1.41v2.95h.05c.78-2.02,2.48-3.21,4.75-3.12v1.53c-2.78-.15-4.67,1.9-4.67,4.5v6.69h-1.53v-12.56Z"/>
    <path class="cls-1" d="M146.38,27.74c.15-2.95,2.21-4.21,5.09-4.21,2.21,0,4.62,.68,4.62,4.04v6.67c0,.58,.29,.92,.9,.92,.17,0,.36-.05,.49-.1v1.29c-.34,.07-.58,.1-1,.1-1.56,0-1.8-.88-1.8-2.19h-.05c-1.07,1.63-2.17,2.56-4.58,2.56s-4.21-1.14-4.21-3.68c0-3.53,3.43-3.65,6.74-4.04,1.26-.15,1.97-.32,1.97-1.7,0-2.07-1.49-2.58-3.29-2.58-1.9,0-3.31,.88-3.36,2.92h-1.53Zm8.18,1.85h-.05c-.19,.37-.88,.49-1.29,.56-2.61,.46-5.84,.44-5.84,2.9,0,1.53,1.36,2.48,2.8,2.48,2.34,0,4.41-1.49,4.38-3.94v-2Z"/>
    <path class="cls-1" d="M159.19,19.07h1.53v17.38h-1.53V19.07Z"/>
    <path class="cls-1" d="M163.69,19.07h1.53v2.46h-1.53v-2.46Zm0,4.82h1.53v12.56h-1.53v-12.56Z"/>
    <path class="cls-1" d="M170.61,23.89h2.56v1.29h-2.56v8.47c0,1,.15,1.58,1.24,1.65,.44,0,.88-.02,1.31-.07v1.32c-.46,0-.9,.05-1.36,.05-2.04,0-2.75-.68-2.73-2.82v-8.59h-2.19v-1.29h2.19v-3.77h1.53v3.77Z"/>
    <path class="cls-1" d="M175.24,27.74c.15-2.95,2.21-4.21,5.09-4.21,2.21,0,4.62,.68,4.62,4.04v6.67c0,.58,.29,.92,.9,.92,.17,0,.36-.05,.49-.1v1.29c-.34,.07-.58,.1-1,.1-1.56,0-1.8-.88-1.8-2.19h-.05c-1.07,1.63-2.17,2.56-4.58,2.56s-4.21-1.14-4.21-3.68c0-3.53,3.43-3.65,6.74-4.04,1.27-.15,1.97-.32,1.97-1.7,0-2.07-1.49-2.58-3.29-2.58-1.9,0-3.31,.88-3.36,2.92h-1.53Zm8.18,1.85h-.05c-.2,.37-.88,.49-1.29,.56-2.6,.46-5.84,.44-5.84,2.9,0,1.53,1.36,2.48,2.8,2.48,2.34,0,4.41-1.49,4.38-3.94v-2Z"/>
    <path class="cls-1" d="M190.46,23.89h2.56v1.29h-2.56v8.47c0,1,.15,1.58,1.24,1.65,.44,0,.88-.02,1.31-.07v1.32c-.46,0-.9,.05-1.36,.05-2.04,0-2.75-.68-2.73-2.82v-8.59h-2.19v-1.29h2.19v-3.77h1.53v3.77Z"/>
    <path class="cls-1" d="M213.05,36.45h-1.41v-2.39h-.05c-.66,1.63-2.65,2.75-4.48,2.75-3.82,0-5.65-3.09-5.65-6.65s1.83-6.64,5.65-6.64c1.87,0,3.7,.95,4.36,2.75h.05v-7.21h1.53v17.38Zm-5.94-.92c3.26,0,4.41-2.75,4.41-5.36s-1.14-5.35-4.41-5.35c-2.92,0-4.11,2.75-4.11,5.35s1.19,5.36,4.11,5.36Z"/>
    <path class="cls-1" d="M216.88,30.59c.03,2.24,1.19,4.94,4.14,4.94,2.24,0,3.46-1.31,3.94-3.21h1.53c-.66,2.85-2.31,4.5-5.48,4.5-3.99,0-5.67-3.07-5.67-6.65,0-3.31,1.68-6.64,5.67-6.64s5.65,3.53,5.53,7.06h-9.66Zm8.13-1.29c-.07-2.31-1.51-4.48-3.99-4.48s-3.89,2.19-4.14,4.48h8.13Z"/>
    <path class="cls-1" d="M248.39,24.33c-.58-2.68-2.8-4.21-5.33-4.21-4.6,0-6.55,3.85-6.55,7.64s1.95,7.64,6.55,7.64c3.21,0,5.26-2.48,5.57-5.57h1.65c-.46,4.26-3.16,6.99-7.23,6.99-5.48,0-8.2-4.31-8.2-9.06s2.73-9.05,8.2-9.05c3.29,0,6.55,1.97,6.98,5.62h-1.65Z"/>
    <path class="cls-1" d="M252.39,27.74c.15-2.95,2.22-4.21,5.09-4.21,2.22,0,4.62,.68,4.62,4.04v6.67c0,.58,.29,.92,.9,.92,.17,0,.36-.05,.49-.1v1.29c-.34,.07-.58,.1-1,.1-1.56,0-1.8-.88-1.8-2.19h-.05c-1.07,1.63-2.17,2.56-4.58,2.56s-4.21-1.14-4.21-3.68c0-3.53,3.43-3.65,6.74-4.04,1.26-.15,1.97-.32,1.97-1.7,0-2.07-1.49-2.58-3.29-2.58-1.9,0-3.31,.88-3.36,2.92h-1.53Zm8.18,1.85h-.05c-.19,.37-.88,.49-1.29,.56-2.61,.46-5.84,.44-5.84,2.9,0,1.53,1.36,2.48,2.8,2.48,2.34,0,4.41-1.49,4.38-3.94v-2Z"/>
    <path class="cls-1" d="M267.61,23.89h2.56v1.29h-2.56v8.47c0,1,.15,1.58,1.24,1.65,.44,0,.88-.02,1.31-.07v1.32c-.46,0-.9,.05-1.36,.05-2.04,0-2.75-.68-2.73-2.82v-8.59h-2.19v-1.29h2.19v-3.77h1.53v3.77Z"/>
    <path class="cls-1" d="M272.24,27.74c.15-2.95,2.22-4.21,5.09-4.21,2.22,0,4.62,.68,4.62,4.04v6.67c0,.58,.29,.92,.9,.92,.17,0,.36-.05,.49-.1v1.29c-.34,.07-.58,.1-1,.1-1.56,0-1.8-.88-1.8-2.19h-.05c-1.07,1.63-2.17,2.56-4.58,2.56s-4.21-1.14-4.21-3.68c0-3.53,3.43-3.65,6.74-4.04,1.26-.15,1.97-.32,1.97-1.7,0-2.07-1.49-2.58-3.29-2.58-1.9,0-3.31,.88-3.36,2.92h-1.53Zm8.18,1.85h-.05c-.2,.37-.88,.49-1.29,.56-2.6,.46-5.84,.44-5.84,2.9,0,1.53,1.36,2.48,2.8,2.48,2.34,0,4.41-1.49,4.38-3.94v-2Z"/>
    <path class="cls-1" d="M285.05,19.07h1.53v17.38h-1.53V19.07Z"/>
    <path class="cls-1" d="M299.71,36.45h-1.41v-2.26h-.05c-.8,1.68-2.46,2.63-4.33,2.63-3.16,0-4.41-1.85-4.41-4.77v-8.15h1.53v8.18c.07,2.26,.92,3.46,3.36,3.46,2.63,0,3.77-2.48,3.77-5.04v-6.6h1.53v12.56Z"/>
    <path class="cls-1" d="M302.59,23.89h1.53v2.17h.05c.56-1.51,2.24-2.53,4.02-2.53,3.53,0,4.6,1.85,4.6,4.84v8.08h-1.53v-7.84c0-2.17-.71-3.8-3.19-3.8s-3.89,1.85-3.94,4.31v7.33h-1.53v-12.56Z"/>
    <path class="cls-1" d="M314.28,23.89h1.63l4.14,10.71,3.87-10.71h1.53l-5.45,14.48c-.88,2.12-1.39,2.73-3.31,2.73-.61-.03-.92-.03-1.17-.12v-1.29c.37,.07,.71,.12,1.05,.12,1.36,0,1.68-.8,2.19-1.97l.54-1.44-5.01-12.51Z"/>
    <path class="cls-1" d="M326.82,27.74c.15-2.95,2.21-4.21,5.09-4.21,2.21,0,4.62,.68,4.62,4.04v6.67c0,.58,.29,.92,.9,.92,.17,0,.36-.05,.49-.1v1.29c-.34,.07-.58,.1-1,.1-1.56,0-1.8-.88-1.8-2.19h-.05c-1.07,1.63-2.17,2.56-4.58,2.56s-4.21-1.14-4.21-3.68c0-3.53,3.43-3.65,6.74-4.04,1.26-.15,1.97-.32,1.97-1.7,0-2.07-1.49-2.58-3.29-2.58-1.9,0-3.31,.88-3.36,2.92h-1.53Zm8.18,1.85h-.05c-.2,.37-.88,.49-1.29,.56-2.6,.46-5.84,.44-5.84,2.9,0,1.53,1.36,2.48,2.8,2.48,2.34,0,4.41-1.49,4.38-3.94v-2Z"/>
    <path class="cls-1" d="M82.67,43.43h7.5c4.5,0,7.89,2.82,7.89,8.59,0,5.04-2.58,8.79-7.89,8.79h-7.5v-17.38Zm3.82,14.17h3.41c2.21,0,4.33-1.36,4.33-5.21,0-3.51-1.22-5.74-5.01-5.74h-2.73v10.95Z"/>
    <path class="cls-1" d="M103.2,55.35c.1,2.19,1.17,3.19,3.09,3.19,1.39,0,2.51-.85,2.73-1.63h3.04c-.97,2.97-3.04,4.23-5.89,4.23-3.97,0-6.43-2.73-6.43-6.62s2.6-6.64,6.43-6.64c4.28,0,6.35,3.6,6.11,7.47h-9.08Zm5.62-2.19c-.32-1.75-1.07-2.68-2.75-2.68-2.19,0-2.82,1.7-2.87,2.68h5.62Z"/>
    <path class="cls-1" d="M114.33,48.22h3.29v1.61h.05c.83-1.34,2.19-1.95,3.75-1.95,3.94,0,5.72,3.19,5.72,6.77,0,3.36-1.85,6.5-5.53,6.5-1.51,0-2.94-.66-3.77-1.9h-.05v5.99h-3.46v-17.01Zm9.35,6.33c0-2-.8-4.07-3.02-4.07s-2.99,2.02-2.99,4.07,.78,3.99,3.02,3.99,2.99-1.95,2.99-3.99Z"/>
    <path class="cls-1" d="M129.06,52.09c.19-3.24,3.09-4.21,5.91-4.21,2.51,0,5.53,.56,5.53,3.58v6.55c0,1.14,.12,2.29,.44,2.8h-3.51c-.12-.39-.22-.8-.24-1.22-1.1,1.14-2.7,1.56-4.23,1.56-2.39,0-4.28-1.19-4.28-3.77,0-2.85,2.14-3.53,4.28-3.82,2.12-.32,4.09-.24,4.09-1.65,0-1.49-1.02-1.71-2.24-1.71-1.31,0-2.17,.54-2.29,1.9h-3.46Zm7.98,2.56c-.58,.51-1.8,.54-2.87,.73-1.07,.22-2.05,.58-2.05,1.85s1,1.61,2.12,1.61c2.7,0,2.8-2.14,2.8-2.9v-1.29Z"/>
    <path class="cls-1" d="M143.19,48.22h3.29v2.34h.05c.63-1.58,2.34-2.68,4.02-2.68,.24,0,.54,.05,.75,.12v3.21c-.32-.07-.83-.12-1.24-.12-2.53,0-3.41,1.83-3.41,4.04v5.67h-3.46v-12.58Z"/>
    <path class="cls-1" d="M157.04,48.22h2.53v2.31h-2.53v6.23c0,1.17,.29,1.46,1.46,1.46,.37,0,.71-.02,1.07-.1v2.7c-.58,.1-1.34,.12-2.02,.12-2.12,0-3.97-.49-3.97-2.99v-7.42h-2.09v-2.31h2.09v-3.77h3.46v3.77Z"/>
    <path class="cls-1" d="M161.09,52.09c.19-3.24,3.09-4.21,5.91-4.21,2.51,0,5.53,.56,5.53,3.58v6.55c0,1.14,.12,2.29,.44,2.8h-3.51c-.12-.39-.22-.8-.24-1.22-1.1,1.14-2.7,1.56-4.23,1.56-2.39,0-4.28-1.19-4.28-3.77,0-2.85,2.14-3.53,4.28-3.82,2.12-.32,4.09-.24,4.09-1.65,0-1.49-1.02-1.71-2.24-1.71-1.31,0-2.17,.54-2.29,1.9h-3.46Zm7.98,2.56c-.58,.51-1.8,.54-2.87,.73-1.07,.22-2.05,.58-2.05,1.85s1,1.61,2.12,1.61c2.7,0,2.8-2.14,2.8-2.9v-1.29Z"/>
    <path class="cls-1" d="M175.31,48.22h3.26v1.7h.05c.9-1.29,2.21-2.04,3.85-2.04s2.99,.58,3.68,2.09c.73-1.1,2.04-2.09,3.8-2.09,2.68,0,4.6,1.24,4.6,4.5v8.42h-3.46v-7.13c0-1.68-.15-3.07-2.12-3.07s-2.31,1.61-2.31,3.19v7.01h-3.46v-7.06c0-1.46,.1-3.14-2.09-3.14-.68,0-2.34,.44-2.34,2.9v7.3h-3.46v-12.58Z"/>
    <path class="cls-1" d="M200.12,55.35c.1,2.19,1.17,3.19,3.09,3.19,1.39,0,2.51-.85,2.73-1.63h3.04c-.97,2.97-3.04,4.23-5.89,4.23-3.97,0-6.43-2.73-6.43-6.62s2.6-6.64,6.43-6.64c4.28,0,6.35,3.6,6.11,7.47h-9.08Zm5.62-2.19c-.32-1.75-1.07-2.68-2.75-2.68-2.19,0-2.82,1.7-2.87,2.68h5.62Z"/>
    <path class="cls-1" d="M211.26,48.22h3.29v1.75h.07c.88-1.41,2.39-2.09,3.85-2.09,3.68,0,4.6,2.07,4.6,5.18v7.74h-3.46v-7.11c0-2.07-.61-3.09-2.21-3.09-1.87,0-2.68,1.05-2.68,3.6v6.6h-3.46v-12.58Z"/>
    <path class="cls-1" d="M230.08,48.22h2.53v2.31h-2.53v6.23c0,1.17,.29,1.46,1.46,1.46,.37,0,.71-.02,1.07-.1v2.7c-.58,.1-1.34,.12-2.02,.12-2.12,0-3.97-.49-3.97-2.99v-7.42h-2.09v-2.31h2.09v-3.77h3.46v3.77Z"/>
    <path class="cls-1" d="M250.02,59.2h-.05c-.8,1.36-2.22,1.95-3.82,1.95-3.8,0-5.65-3.26-5.65-6.74s1.87-6.52,5.57-6.52c1.49,0,2.94,.63,3.72,1.87h.05v-6.33h3.46v17.38h-3.29v-1.61Zm-3.02-8.71c-2.26,0-3.04,1.95-3.04,4.02s.9,4.04,3.04,4.04c2.29,0,2.97-2,2.97-4.07s-.73-3.99-2.97-3.99Z"/>
    <path class="cls-1" d="M256.26,43.43h3.46v3.73c.07,2.17-1.44,3.82-3.46,4.09v-1.61c1.24-.41,1.61-1.27,1.61-2.46h-1.61v-3.75Z"/>
    <path class="cls-1" d="M263.06,43.43h13v3.21h-9.18v3.72h8.42v2.97h-8.42v4.26h9.37v3.21h-13.19v-17.38Z"/>
    <path class="cls-1" d="M278.57,48.22h3.26v1.7h.05c.9-1.29,2.21-2.04,3.85-2.04s2.99,.58,3.68,2.09c.73-1.1,2.04-2.09,3.8-2.09,2.68,0,4.6,1.24,4.6,4.5v8.42h-3.46v-7.13c0-1.68-.15-3.07-2.12-3.07s-2.31,1.61-2.31,3.19v7.01h-3.46v-7.06c0-1.46,.1-3.14-2.09-3.14-.68,0-2.34,.44-2.34,2.9v7.3h-3.46v-12.58Z"/>
    <path class="cls-1" d="M300.54,48.22h3.29v1.61h.05c.83-1.34,2.19-1.95,3.75-1.95,3.94,0,5.72,3.19,5.72,6.77,0,3.36-1.85,6.5-5.53,6.5-1.51,0-2.94-.66-3.77-1.9h-.05v5.99h-3.46v-17.01Zm9.35,6.33c0-2-.8-4.07-3.02-4.07s-2.99,2.02-2.99,4.07,.78,3.99,3.02,3.99,2.99-1.95,2.99-3.99Z"/>
    <path class="cls-1" d="M315.42,48.22h3.29v2.34h.05c.63-1.58,2.34-2.68,4.02-2.68,.24,0,.54,.05,.75,.12v3.21c-.32-.07-.83-.12-1.24-.12-2.53,0-3.41,1.83-3.41,4.04v5.67h-3.46v-12.58Z"/>
    <path class="cls-1" d="M327.3,55.35c.1,2.19,1.17,3.19,3.09,3.19,1.39,0,2.51-.85,2.73-1.63h3.04c-.97,2.97-3.04,4.23-5.89,4.23-3.97,0-6.43-2.73-6.43-6.62s2.6-6.64,6.43-6.64c4.28,0,6.35,3.6,6.11,7.47h-9.08Zm5.62-2.19c-.32-1.75-1.07-2.68-2.75-2.68-2.19,0-2.82,1.7-2.87,2.68h5.62Z"/>
    <path class="cls-1" d="M341.11,56.72c.02,1.51,1.29,2.12,2.65,2.12,1,0,2.26-.39,2.26-1.61,0-1.05-1.44-1.41-3.92-1.95-2-.44-3.99-1.14-3.99-3.36,0-3.21,2.78-4.04,5.48-4.04s5.28,.92,5.55,4.02h-3.29c-.1-1.34-1.12-1.71-2.36-1.71-.78,0-1.92,.15-1.92,1.17,0,1.24,1.95,1.41,3.92,1.87,2.02,.46,3.99,1.19,3.99,3.53,0,3.31-2.87,4.38-5.74,4.38s-5.77-1.1-5.91-4.43h3.29Z"/>
    <path class="cls-1" d="M351.37,52.09c.19-3.24,3.09-4.21,5.91-4.21,2.51,0,5.53,.56,5.53,3.58v6.55c0,1.14,.12,2.29,.44,2.8h-3.51c-.12-.39-.22-.8-.24-1.22-1.1,1.14-2.7,1.56-4.23,1.56-2.39,0-4.28-1.19-4.28-3.77,0-2.85,2.14-3.53,4.28-3.82,2.12-.32,4.09-.24,4.09-1.65,0-1.49-1.02-1.71-2.24-1.71-1.31,0-2.17,.54-2.29,1.9h-3.46Zm7.98,2.56c-.58,.51-1.8,.54-2.87,.73-1.07,.22-2.05,.58-2.05,1.85s1,1.61,2.12,1.61c2.7,0,2.8-2.14,2.8-2.9v-1.29Z"/>
    <path class="cls-1" d="M85.86,70.63h-3.46v-2.85h3.46v2.85Zm-3.46,1.95h3.46v12.58h-3.46v-12.58Z"/>
    <path class="cls-1" d="M99.57,71h-5.21v-3.21h14.24v3.21h-5.21v14.17h-3.82v-14.17Z"/>
    <path class="cls-1" d="M108,72.58h3.29v2.34h.05c.63-1.58,2.34-2.68,4.01-2.68,.24,0,.54,.05,.76,.12v3.21c-.32-.07-.83-.12-1.24-.12-2.53,0-3.41,1.83-3.41,4.04v5.67h-3.46v-12.58Z"/>
    <path class="cls-1" d="M119.88,79.71c.1,2.19,1.17,3.19,3.09,3.19,1.39,0,2.51-.85,2.73-1.63h3.04c-.97,2.97-3.04,4.23-5.89,4.23-3.97,0-6.43-2.73-6.43-6.62s2.6-6.64,6.43-6.64c4.28,0,6.35,3.6,6.11,7.47h-9.08Zm5.62-2.19c-.32-1.75-1.07-2.68-2.75-2.68-2.19,0-2.82,1.7-2.87,2.68h5.62Z"/>
    <path class="cls-1" d="M131.01,67.78h3.46v6.33h.05c.85-1.29,2.41-1.87,3.97-1.87,2.51,0,5.21,2.02,5.21,6.62s-2.7,6.64-5.21,6.64c-1.85,0-3.38-.56-4.14-1.95h-.05v1.61h-3.29v-17.38Zm6.28,7.06c-2.05,0-2.94,1.92-2.94,4.04s.9,4.02,2.94,4.02,2.94-1.92,2.94-4.02-.9-4.04-2.94-4.04Z"/>
    <path class="cls-1" d="M145.75,76.45c.19-3.24,3.09-4.21,5.91-4.21,2.51,0,5.53,.56,5.53,3.58v6.55c0,1.14,.12,2.29,.44,2.8h-3.5c-.12-.39-.22-.8-.24-1.22-1.1,1.14-2.7,1.56-4.23,1.56-2.39,0-4.28-1.19-4.28-3.77,0-2.85,2.14-3.53,4.28-3.82,2.12-.32,4.09-.24,4.09-1.65,0-1.49-1.02-1.71-2.24-1.71-1.31,0-2.17,.54-2.29,1.9h-3.46Zm7.98,2.56c-.58,.51-1.8,.54-2.87,.73-1.07,.22-2.05,.58-2.05,1.85s1,1.61,2.12,1.61c2.7,0,2.8-2.14,2.8-2.9v-1.29Z"/>
    <path class="cls-1" d="M159.97,67.78h3.46v17.38h-3.46v-17.38Z"/>
    <path class="cls-1" d="M166.25,67.78h3.46v17.38h-3.46v-17.38Z"/>
  </g>
</svg>