<?xml version="1.0" encoding="UTF-8"?>
<svg id="Capa_1" data-name="Capa 1" xmlns="http://www.w3.org/2000/svg" viewBox="0 0 269.24 100">
  <defs>
    <style>
      .cls-1 {
        fill: #fff;
      }
    </style>
  </defs>
  <polygon class="cls-1" points="18.05 85.75 69.02 14.26 80.08 14.26 29.21 85.75 18.05 85.75"/>
  <path class="cls-1" d="M30.92,36.5c-.76,1.74-2.22,2.83-4.39,3.05v7.18c3.54-.15,6.43-1.15,8.85-2.84,2.75-1.9,4.59-4.59,5.26-7.4h-9.73Z"/>
  <path class="cls-1" d="M26.54,20.89c2.51,.58,4.25,2.76,4.57,5.94h-4.57v5.93h14.66c.06-6.36-1.77-11.81-5.51-15.24-2.37-2.15-5.42-3.52-9.15-3.83v7.19Z"/>
  <path class="cls-1" d="M23.56,39.3c-2.76-.79-4.38-3.13-4.88-6.54h4.88v-5.94h-4.82c.57-3.16,2.08-5.33,4.82-5.93v-7.21c-8.76,.68-14.67,7.56-14.67,16.45s5.54,15.64,14.67,16.53v-7.36Z"/>
  <path class="cls-1" d="M74.57,53.2v6.48c1.7,.38,2.83,1.38,3.1,3.48h9.18c-.45-5.73-4.6-9.45-12.28-9.96"/>
  <path class="cls-1" d="M75.83,65.61c-.43-.08-.85-.15-1.27-.22v8.26c2.24,.52,3.84,1.28,3.84,3.1s-1.46,2.82-3.84,3.06v6.51c7.68-.28,13.26-3.8,13.26-10.37,0-8.01-6.49-9.42-11.99-10.34"/>
  <path class="cls-1" d="M71.59,64.81c-1.94-.46-3.28-1.09-3.28-2.44,0-1.66,1.37-2.56,3.28-2.8v-6.39c-6.88,.33-12.4,3.72-12.4,9.99,0,7.34,5.81,8.81,11.26,9.73,.39,.07,.76,.13,1.14,.2v-8.28Z"/>
  <path class="cls-1" d="M71.59,79.64c-2.18-.51-3.54-1.97-3.83-4.43h-9.42c.29,6.4,5.24,10.48,13.26,11.06v-6.63Z"/>
  <path class="cls-1" d="M192.65,85.79h5.6v-23.52h-5.6v23.52Zm-13.74-11.83c.26-1.45,1.25-2.14,2.8-2.14,1.15,0,2.7,.49,2.7,1.78,0,1.05-.53,1.38-1.48,1.58-3.89,.79-9.95,.36-9.95,5.93,0,3.52,2.57,5.17,5.83,5.17,2.04,0,4.18-.59,5.63-2.11,.07,.56,.13,1.09,.33,1.61h5.63c-.66-1.35-.66-2.93-.66-4.38v-7.48c0-4.84-3.92-5.73-7.97-5.73-1.94,0-3.92,.33-5.44,1.19-1.52,.89-2.57,2.34-2.67,4.58h5.24Zm-.33,6.92c0-1.35,1.06-1.88,2.31-2.18,1.22-.33,2.67-.43,3.46-.92,.13,3.53-.76,5.04-3.43,5.04-1.25,0-2.34-.56-2.34-1.94m-7.97-18.61h-5.6v4.28h5.6v-4.28Zm-5.6,23.52h5.6v-17.1h-5.6v17.1Zm-2.5-10.84c-.39-4.51-4.18-6.75-8.43-6.75-5.5,0-8.96,3.89-8.96,9.32s3.82,8.76,8.96,8.76c4.55,0,8.11-2.64,8.6-7.21h-5.44c-.26,1.81-1.25,2.93-3.2,2.93-2.37,0-3.33-2.27-3.33-4.48,0-2.37,.49-5.04,3.62-5.04,1.42,0,2.7,1.02,2.73,2.47h5.44Zm-37.45,2.31c0,5.14,3.69,9.03,8.99,9.03s9.03-3.89,9.03-9.03-3.72-9.06-9.03-9.06-8.99,3.92-8.99,9.06m5.6,0c0-2.18,.79-4.78,3.39-4.78s3.43,2.6,3.43,4.78-.82,4.74-3.43,4.74-3.39-2.57-3.39-4.74m-23.75,2.9c.16,4.78,4.32,6.13,8.37,6.13s8.2-1.52,8.2-6.09c0-1.42-.89-3.92-4.35-4.61-2.57-.56-6.32-.86-6.32-2.47,0-1.19,1.48-1.28,2.4-1.28,.69,0,1.32,.13,1.78,.43,.46,.3,.72,.76,.72,1.48h5.17c-.2-4.45-4.12-5.54-7.87-5.54-3.36,0-7.81,1.12-7.81,5.24,0,4.61,4.42,4.71,7.94,5.6,.99,.23,2.73,.49,2.73,1.81s-1.55,1.81-2.64,1.81c-.79,0-1.55-.2-2.08-.59-.56-.43-.92-1.05-.92-1.91h-5.34Z"/>
  <path class="cls-1" d="M248.84,45.6c.26-1.45,1.25-2.14,2.8-2.14,1.15,0,2.7,.49,2.7,1.78,0,1.05-.53,1.38-1.48,1.58-3.89,.79-9.95,.36-9.95,5.93,0,3.53,2.57,5.17,5.83,5.17,2.04,0,4.18-.59,5.63-2.11,.07,.56,.13,1.09,.33,1.61h5.63c-.66-1.35-.66-2.93-.66-4.38v-7.48c0-4.84-3.92-5.73-7.97-5.73-1.94,0-3.92,.33-5.44,1.19-1.51,.89-2.57,2.34-2.67,4.58h5.24Zm-.33,6.92c0-1.35,1.05-1.88,2.31-2.18,1.22-.33,2.67-.43,3.46-.92,.13,3.53-.76,5.04-3.43,5.04-1.25,0-2.34-.56-2.34-1.94m-7.64-18.61h-5.6v4.28h5.6v-4.28Zm-5.6,23.52h5.6v-17.1h-5.6v17.1Zm-29.39,0h5.6v-8.33c0-3.49,.86-4.65,2.87-4.65,1.52,0,2.11,1.25,2.11,3.26v9.72h5.6v-8.37c0-2.77,.23-4.61,2.64-4.61,1.45,0,2.34,1.09,2.34,2.93v10.05h5.6v-10.21c0-3.26-.59-7.38-6.03-7.38-2.31,0-3.99,.96-5.34,2.77-.92-2.08-2.83-2.77-4.97-2.77s-3.89,1.12-4.91,2.83h-.07v-2.34h-5.44v17.1Zm-19.96-8.53c0,5.14,3.69,9.03,8.99,9.03s9.03-3.89,9.03-9.03-3.72-9.06-9.03-9.06-8.99,3.92-8.99,9.06m5.6,0c0-2.17,.79-4.78,3.39-4.78s3.43,2.6,3.43,4.78-.82,4.74-3.43,4.74-3.39-2.57-3.39-4.74m-24.54,8.53h5.6v-9.32c0-1.88,.92-3.66,3.03-3.66,3.06,0,2.8,2.37,2.8,4.71v8.27h5.6v-10.97c0-2.47-.46-6.62-6.16-6.62-2.04,0-4.35,1.09-5.37,2.83h-.07v-2.34h-5.44v17.1Zm-20.29-8.53c0,5.14,3.69,9.03,8.99,9.03s9.03-3.89,9.03-9.03-3.72-9.06-9.03-9.06-8.99,3.92-8.99,9.06m5.6,0c0-2.17,.79-4.78,3.39-4.78s3.43,2.6,3.43,4.78-.82,4.74-3.43,4.74-3.39-2.57-3.39-4.74m-7.7-2.31c-.39-4.51-4.18-6.75-8.43-6.75-5.5,0-8.96,3.89-8.96,9.32s3.82,8.76,8.96,8.76c4.55,0,8.1-2.63,8.6-7.21h-5.44c-.26,1.81-1.25,2.93-3.2,2.93-2.37,0-3.33-2.27-3.33-4.48,0-2.37,.49-5.04,3.62-5.04,1.42,0,2.7,1.02,2.73,2.47h5.44Zm-19.36,3.66c.26-5.8-2.8-10.41-8.93-10.41-5.04,0-9.23,3.76-9.23,8.99,0,5.73,3.79,9.09,9.36,9.09,3.82,0,7.48-1.71,8.5-5.67h-5.24c-.53,1.25-1.85,1.88-3.2,1.88-2.37,0-3.72-1.55-3.82-3.89h12.55Zm-12.55-3.13c.33-2.08,1.65-3.49,3.62-3.49s3.23,1.58,3.33,3.49h-6.95Z"/>
</svg>